<svg version="1.1" id="layout1" xmlns="http://www.w3.org/2000/svg" xmlns:xlink="http://www.w3.org/1999/xlink" x="0px" y="0px"
	 viewBox="0 0 117 27" style="enable-background:new 0 0 117 27;" xml:space="preserve">
<g>
	<defs>
		<rect id="SVGID_1_" x="-39.9" width="157" height="27"/>
	</defs>
	<clipPath id="SVGID_00000023248255305809236420000007367745325967865768_">
		<use xlink:href="#SVGID_1_"  style="overflow:visible;"/>
	</clipPath>
	<g style="clip-path:url(#SVGID_00000023248255305809236420000007367745325967865768_);">
		<path class="st1" d="M115.9,21.4c-0.5,0.3-1.1,0.5-1.8,0.7c-0.7,0.1-1.3,0.2-1.9,0.2c-2.1,0-3.8-0.5-4.9-1.5
			c-1.1-1-1.6-2.4-1.6-4.3c0-1.8,0.5-3.2,1.5-4.2c1-1,2.3-1.5,4-1.5c1.7,0,3,0.5,4,1.5c1,1,1.5,2.3,1.5,4.2c0,0.2,0,0.5,0,0.9h-7.8
			c0.3,1.7,1.4,2.6,3.4,2.6c1.4,0,2.6-0.4,3.7-1.2V21.4z M113.6,15.2c-0.2-0.7-0.5-1.2-0.9-1.5c-0.4-0.3-0.9-0.5-1.5-0.5
			c-0.6,0-1,0.2-1.4,0.5c-0.4,0.3-0.7,0.8-0.8,1.5H113.6z"/>
		<path class="st1" d="M98.5,26.6c-0.8,0-1.6-0.1-2.5-0.2c-0.8-0.1-1.5-0.3-2.2-0.5v-2.6c1.4,0.3,2.9,0.5,4.3,0.5
			c0.9,0,1.6-0.2,2.1-0.6c0.5-0.4,0.7-1,0.7-1.7c-0.7,0.5-1.6,0.7-2.6,0.7c-1,0-1.9-0.2-2.6-0.7c-0.7-0.5-1.3-1.1-1.7-2
			c-0.4-0.9-0.6-1.8-0.6-2.9c0-1.1,0.2-2.1,0.6-2.9c0.4-0.9,1-1.5,1.7-2c0.7-0.5,1.6-0.7,2.6-0.7c0.9,0,1.8,0.3,2.6,0.9v-0.7h3.1V22
			C104,25,102.2,26.6,98.5,26.6z M96.4,16.6c0,0.6,0.1,1.2,0.4,1.7c0.3,0.5,0.6,0.9,1,1.2c0.4,0.3,0.8,0.4,1.3,0.4
			c0.3,0,0.7-0.1,1.1-0.2c0.4-0.2,0.8-0.5,1.1-1l0.1-0.4v-3.7c-0.3-0.6-0.6-0.9-1.1-1.1c-0.4-0.2-0.8-0.3-1.2-0.3
			c-0.5,0-0.9,0.1-1.3,0.4c-0.4,0.3-0.7,0.7-1,1.2C96.6,15.4,96.4,16,96.4,16.6z"/>
		<path class="st1" d="M89.2,11.2v1.2c0.3-0.4,0.8-0.7,1.2-0.9c0.5-0.2,1-0.3,1.5-0.3c0.3,0,0.6,0,0.9,0.1v2.5
			c-0.4-0.1-0.7-0.1-1.1-0.1c-0.5,0-1,0.1-1.4,0.3c-0.5,0.2-0.8,0.4-1.1,0.8V22H86V11.2H89.2z"/>
		<path class="st1" d="M83.7,21.4c-0.5,0.3-1.1,0.5-1.8,0.7c-0.7,0.1-1.3,0.2-1.9,0.2c-2.1,0-3.8-0.5-4.9-1.5
			c-1.1-1-1.6-2.4-1.6-4.3c0-1.8,0.5-3.2,1.5-4.2c1-1,2.3-1.5,4-1.5c1.7,0,3,0.5,4,1.5c1,1,1.5,2.3,1.5,4.2c0,0.2,0,0.5,0,0.9h-7.8
			C76.9,19.1,78,20,80,20c1.4,0,2.6-0.4,3.7-1.2V21.4z M81.4,15.2c-0.2-0.7-0.5-1.2-0.9-1.5c-0.4-0.3-0.9-0.5-1.5-0.5
			c-0.6,0-1,0.2-1.4,0.5c-0.4,0.3-0.7,0.8-0.8,1.5H81.4z"/>
		<path class="st1" d="M59.5,8h3.6l3.4,11.8h0.1L69.9,8h3.6l-4.3,14h-5.3L59.5,8z"/>
		<path class="st1" d="M46.4,6.6v5.7c0.5-0.4,1-0.7,1.6-0.9c0.6-0.2,1.2-0.3,1.8-0.3c1,0,1.8,0.3,2.4,0.9c0.6,0.6,0.9,1.4,0.9,2.3
			V22h-3.2v-7.1c0-0.4-0.2-0.7-0.5-0.9c-0.3-0.3-0.7-0.4-1.1-0.4c-0.3,0-0.6,0.1-0.9,0.2c-0.4,0.2-0.7,0.4-1,0.6V22h-3.2V6.6H46.4z"
			/>
		<path class="st1" d="M37.9,22.2c-0.8,0-1.6,0-2.5-0.2c-0.8-0.2-1.5-0.4-2.2-0.8v-2.9c0.5,0.4,1.2,0.7,2,1c0.8,0.3,1.5,0.4,2,0.3
			c0.4,0,0.7-0.1,0.9-0.3c0.2-0.2,0.3-0.3,0.3-0.5c0.1-0.4,0-0.7-0.3-0.9c-0.3-0.2-0.8-0.4-1.5-0.6c-0.8-0.2-1.5-0.5-1.9-0.8
			c-0.5-0.3-0.8-0.6-1.1-1c-0.2-0.4-0.4-0.9-0.4-1.5c0-0.6,0.2-1.2,0.5-1.6c0.3-0.5,0.8-0.9,1.5-1.2c0.7-0.3,1.4-0.4,2.2-0.4
			c0.6,0,1.2,0.1,1.8,0.2c0.6,0.1,1.1,0.3,1.5,0.4v2.6c-0.4-0.2-0.9-0.4-1.5-0.6c-0.6-0.2-1.1-0.3-1.5-0.3c-0.9,0-1.4,0.2-1.5,0.7
			c0,0.3,0.1,0.5,0.4,0.7c0.3,0.2,0.7,0.4,1.3,0.6c0.8,0.3,1.5,0.5,2,0.8c0.5,0.3,0.9,0.6,1.2,1c0.3,0.4,0.4,1,0.4,1.6
			c0,1-0.4,1.8-1.1,2.4C40,21.9,39,22.2,37.9,22.2z"/>
		<path class="st1" d="M25.8,22.3c-1,0-1.9-0.2-2.7-0.7c-0.7-0.5-1.3-1.1-1.7-2c-0.4-0.8-0.6-1.8-0.6-2.9c0-1.1,0.2-2.1,0.6-2.9
			c0.4-0.9,1-1.5,1.7-2c0.7-0.5,1.6-0.7,2.6-0.7c0.5,0,0.9,0.1,1.4,0.3c0.5,0.2,0.9,0.4,1.3,0.7v-0.7h3.2v8.3c0,1.1,0.1,1.9,0.4,2.5
			h-3c-0.1-0.2-0.2-0.4-0.2-0.7C27.9,21.9,26.9,22.3,25.8,22.3z M23.9,16.6c0,0.6,0.1,1.2,0.4,1.7c0.3,0.5,0.6,0.9,1,1.2
			c0.4,0.3,0.8,0.4,1.3,0.4c0.3,0,0.7-0.1,1.1-0.2c0.4-0.1,0.7-0.5,1-0.9v-4.5c-0.3-0.5-0.6-0.8-1-0.9c-0.4-0.1-0.7-0.2-1.1-0.2
			c-0.5,0-0.9,0.1-1.3,0.4c-0.4,0.3-0.7,0.7-1,1.2C24,15.4,23.9,16,23.9,16.6z"/>
		<path class="st1" d="M18.5,22.2c-1.2,0-2.1-0.3-2.7-1c-0.6-0.7-0.9-1.7-0.9-3V6.6H18v10.8c0,0.5,0,0.9,0.1,1.2
			c0.1,0.3,0.2,0.5,0.4,0.6c0.1,0.1,0.3,0.2,0.5,0.2c0.2,0,0.5,0,1,0v2.6H18.5z"/>
		<path class="st1" d="M8.8,22.3c-1.5,0-2.9-0.3-4.1-0.8C3.6,20.9,2.7,20,2,19c-0.7-1.1-1-2.3-1-3.8c0-1.5,0.3-2.9,1-4
			c0.7-1.1,1.6-2,2.7-2.6c1.2-0.6,2.5-0.9,4-0.9c0.7,0,1.5,0.1,2.3,0.2s1.4,0.3,1.9,0.6V11c-1.3-0.5-2.6-0.7-3.8-0.7
			c-1.4,0-2.5,0.4-3.4,1.2c-0.9,0.8-1.3,2-1.3,3.7c0,0.9,0.2,1.7,0.6,2.3c0.4,0.7,1,1.2,1.7,1.6c0.7,0.4,1.4,0.6,2.2,0.6l0.4,0
			c0.6,0,1.2-0.1,1.8-0.3c0.6-0.2,1.1-0.4,1.6-0.7v2.8c-0.6,0.3-1.2,0.5-1.8,0.6C10.4,22.2,9.6,22.3,8.8,22.3z"/>
	</g>
</g>
</svg>
