<?xml version="1.0" standalone="no"?>
<!DOCTYPE svg PUBLIC "-//W3C//DTD SVG 20010904//EN"
 "http://www.w3.org/TR/2001/REC-SVG-20010904/DTD/svg10.dtd">
<svg version="1.0" xmlns="http://www.w3.org/2000/svg"
 width="512.000000pt" height="512.000000pt" viewBox="0 0 512.000000 512.000000"
 preserveAspectRatio="xMidYMid meet">

<g transform="translate(0.000000,512.000000) scale(0.100000,-0.100000)"
fill="#02a9a1" stroke="none">
<path d="M2542 4845 c3 -3 42 -10 88 -16 161 -20 305 -84 394 -175 77 -78 95
-172 54 -281 -30 -81 -174 -224 -323 -322 -323 -212 -851 -422 -1460 -581
-141 -37 -172 -57 -214 -141 -72 -145 -18 -261 116 -245 122 14 760 215 1033
324 560 225 949 471 1094 692 63 96 81 150 80 245 -1 70 -5 88 -34 145 -83
164 -274 280 -560 340 -84 17 -282 29 -268 15z"/>
<path d="M2491 4831 c-8 -5 6 -17 43 -35 101 -50 129 -112 87 -195 -48 -93
-241 -228 -455 -317 -149 -62 -178 -82 -210 -145 -51 -103 -28 -189 50 -189
72 0 413 156 582 266 164 107 257 205 286 304 38 128 -67 237 -274 285 -41 10
-80 22 -85 26 -6 4 -16 4 -24 0z"/>
<path d="M2410 4805 c0 -61 -168 -160 -395 -233 -158 -51 -209 -79 -273 -145
-39 -42 -52 -63 -52 -86 0 -27 3 -31 29 -31 35 0 297 86 411 135 163 70 314
168 350 228 30 48 26 82 -15 122 -41 41 -55 44 -55 10z"/>
<path d="M3130 4777 c272 -117 422 -257 475 -441 45 -155 -23 -342 -184 -509
-248 -258 -652 -484 -1306 -731 -106 -40 -133 -60 -160 -119 -72 -153 29 -308
184 -283 40 6 383 141 561 221 168 75 390 190 529 274 350 212 574 439 651
662 38 107 42 249 10 351 -37 120 -152 266 -290 368 -139 102 -349 199 -490
224 -28 5 -25 2 20 -17z"/>
<path d="M1280 4410 c-52 -10 -116 -27 -141 -38 -76 -33 -209 -168 -209 -212
0 -26 213 9 275 45 98 58 222 198 192 217 -6 4 -14 7 -17 7 -3 -1 -48 -9 -100
-19z"/>
<path d="M4002 4283 c111 -118 198 -321 198 -464 0 -168 -82 -375 -209 -527
-82 -97 -221 -227 -336 -314 -359 -269 -983 -562 -1734 -813 -96 -33 -186 -69
-201 -82 -102 -86 -71 -287 54 -344 69 -31 116 -25 322 45 627 213 1211 483
1604 742 289 191 519 426 624 639 73 148 89 204 93 340 10 262 -60 418 -307
683 -68 72 -128 132 -134 132 -5 0 6 -17 26 -37z"/>
<path d="M1515 4066 c-60 -18 -127 -40 -147 -50 -75 -36 -138 -137 -138 -222
0 -38 4 -45 30 -59 29 -15 37 -14 143 14 218 57 248 75 296 181 23 50 28 139
9 158 -19 19 -75 13 -193 -22z"/>
<path d="M4542 3522 c29 -101 29 -272 -1 -382 -30 -115 -114 -287 -191 -390
-75 -101 -241 -269 -360 -364 -274 -218 -671 -441 -1117 -625 -110 -46 -217
-93 -238 -105 -75 -42 -107 -165 -63 -240 36 -61 68 -80 146 -84 64 -4 78 0
212 53 501 198 916 425 1178 642 299 249 494 525 562 798 31 125 25 317 -14
450 -27 90 -113 302 -126 310 -4 2 1 -26 12 -63z"/>
<path d="M590 3315 c-131 -29 -153 -39 -183 -84 -76 -115 -81 -300 -9 -318 60
-15 284 41 319 79 46 50 67 108 71 198 4 80 2 88 -19 113 -34 37 -60 39 -179
12z"/>
<path d="M1103 2790 c-168 -48 -191 -61 -225 -129 -37 -72 -38 -147 -3 -217
45 -90 101 -106 241 -68 54 14 116 30 136 35 104 25 160 60 183 115 47 114 9
253 -81 290 -51 21 -107 16 -251 -26z"/>
<path d="M4747 2667 c-13 -145 -90 -329 -211 -507 -76 -113 -307 -338 -461
-450 -178 -129 -303 -203 -555 -329 -407 -203 -842 -365 -1330 -496 -299 -80
-320 -87 -336 -109 -43 -62 19 -169 114 -196 60 -16 86 -13 301 44 934 247
1595 552 2029 936 213 188 378 434 433 645 28 107 45 345 33 455 l-9 85 -8
-78z"/>
<path d="M790 1845 c-178 -47 -170 -43 -187 -83 -42 -101 50 -289 156 -321 34
-10 54 -8 144 13 126 30 184 53 197 77 13 24 11 137 -3 176 -22 58 -73 119
-119 141 -53 26 -77 26 -188 -3z"/>
<path d="M4620 1782 c-86 -166 -293 -391 -505 -550 -284 -211 -622 -381 -1085
-543 -206 -72 -234 -87 -264 -138 -38 -65 14 -119 101 -106 117 17 513 169
758 290 454 224 764 499 915 810 53 108 125 293 118 301 -2 1 -19 -27 -38 -64z"/>
<path d="M1828 1396 c-93 -29 -177 -61 -188 -71 -27 -25 -41 -82 -31 -127 20
-85 75 -138 168 -159 46 -11 60 -9 204 30 205 56 255 79 275 128 36 84 -8 197
-89 234 -73 32 -148 25 -339 -35z"/>
<path d="M1400 698 c-25 -4 -69 -13 -98 -19 -53 -11 -53 -11 -47 -42 11 -57
134 -152 220 -171 38 -8 184 19 203 38 32 32 -35 129 -118 172 -46 23 -105 32
-160 22z"/>
<path d="M2220 452 c-21 -3 -84 -16 -237 -49 -28 -6 -31 -43 -5 -65 63 -55
135 -66 271 -39 141 28 171 58 113 114 -28 27 -94 45 -142 39z"/>
</g>
</svg>
