<svg xmlns="http://www.w3.org/2000/svg" version="1.1" viewBox="0.00 0.00 512.00 512.00"
    width="512.00" height="512.00">
    <path fill="#ffffff"
        d="&#10;  M 45.65 297.77&#10;  C 50.31 280.20 56.48 263.74 64.10 247.67&#10;  C 66.07 243.51 65.99 238.92 65.73 234.44&#10;  Q 63.32 191.66 64.13 148.11&#10;  C 64.39 134.30 66.21 57.13 87.19 55.68&#10;  Q 94.10 55.20 99.69 57.92&#10;  Q 109.79 62.83 121.61 72.92&#10;  C 143.03 91.20 162.36 112.69 183.36 130.92&#10;  C 186.54 133.67 193.35 138.99 197.10 138.76&#10;  Q 198.57 138.67 200.07 138.26&#10;  Q 222.12 132.30 238.17 131.29&#10;  C 256.93 130.11 277.29 130.43 296.13 134.49&#10;  Q 305.05 136.41 313.24 138.56&#10;  C 318.37 139.92 325.54 133.72 329.51 130.33&#10;  Q 339.55 121.75 347.99 113.37&#10;  C 364.54 96.94 380.60 80.49 399.04 66.35&#10;  C 403.86 62.66 409.75 58.98 415.36 56.95&#10;  C 419.03 55.63 425.97 54.84 429.34 57.30&#10;  C 433.77 60.52 436.73 66.64 438.49 71.86&#10;  Q 441.73 81.45 443.26 90.82&#10;  Q 447.60 117.52 448.00 151.51&#10;  Q 448.45 189.74 447.59 207.00&#10;  Q 446.70 225.12 446.21 240.03&#10;  C 446.12 242.85 446.89 245.55 448.09 248.07&#10;  Q 459.73 272.71 466.27 297.70&#10;  C 467.59 302.75 468.45 308.08 467.82 313.31&#10;  C 466.21 326.87 459.76 339.57 452.24 350.80&#10;  Q 436.72 374.00 411.37 395.51&#10;  Q 374.63 426.67 330.92 443.23&#10;  Q 272.04 465.54 211.41 452.34&#10;  Q 188.54 447.36 165.13 436.61&#10;  Q 121.44 416.54 86.71 382.78&#10;  Q 69.63 366.18 57.73 347.55&#10;  C 50.80 336.69 44.86 323.90 44.03 311.09&#10;  Q 43.65 305.29 45.65 297.77&#10;  Z&#10;  M 131.34 313.94&#10;  C 140.29 332.22 157.72 341.20 177.30 342.68&#10;  Q 184.65 343.24 193.22 340.65&#10;  Q 202.03 338.00 205.56 330.26&#10;  C 211.13 318.09 200.76 303.01 191.81 296.02&#10;  C 179.37 286.31 161.98 280.10 146.19 280.97&#10;  Q 137.21 281.47 131.35 287.14&#10;  C 124.01 294.24 127.17 305.43 131.34 313.94&#10;  Z&#10;  M 349.22 281.81&#10;  C 332.78 284.95 316.93 292.71 307.08 305.92&#10;  C 303.14 311.22 300.42 317.96 301.07 324.43&#10;  C 302.18 335.36 310.18 340.08 320.43 341.92&#10;  C 336.31 344.78 355.06 339.00 366.59 328.03&#10;  C 376.14 318.95 389.80 294.29 373.19 284.22&#10;  C 366.55 280.20 356.95 280.33 349.22 281.81&#10;  Z&#10;  M 226.25 381.62&#10;  C 232.99 389.35 240.71 395.69 249.97 398.50&#10;  C 259.93 401.51 272.87 391.21 279.39 384.18&#10;  C 281.43 381.98 283.70 379.66 284.61 376.72&#10;  C 285.41 374.13 282.30 371.54 280.28 370.59&#10;  Q 276.07 368.62 271.56 368.03&#10;  Q 254.57 365.79 237.08 367.97&#10;  Q 232.61 368.53 228.23 370.40&#10;  C 225.86 371.41 222.31 374.22 223.50 377.19&#10;  Q 224.45 379.55 226.25 381.62&#10;  Z" />
</svg>