<svg width="157" height="28" viewBox="0 0 157 28" fill="none" xmlns="http://www.w3.org/2000/svg">
<g id="logo" clip-path="url(#clip0_189_16)">
<g id="&#228;&#187;&#163;&#231;&#144;&#134;&#231;&#187;&#132;">
<path id="Vector" d="M155.711 21.92C155.205 22.2266 154.611 22.4533 153.931 22.6C153.265 22.7466 152.618 22.82 151.991 22.82C149.858 22.82 148.238 22.3133 147.131 21.3C146.038 20.2866 145.491 18.8667 145.491 17.04C145.491 15.2267 145.978 13.84 146.951 12.88C147.938 11.9066 149.278 11.42 150.971 11.42C152.651 11.42 153.978 11.9066 154.951 12.88C155.938 13.84 156.431 15.2267 156.431 17.04C156.431 17.24 156.418 17.5266 156.391 17.9H148.611C148.905 19.62 150.031 20.48 151.991 20.48C153.365 20.48 154.605 20.0733 155.711 19.26V21.92ZM153.411 15.66C153.238 14.9933 152.938 14.5 152.511 14.18C152.085 13.86 151.571 13.7 150.971 13.7C150.411 13.7 149.931 13.8666 149.531 14.2C149.145 14.5333 148.871 15.02 148.711 15.66H153.411Z" fill="black" fill-opacity="0.88"/>
<path id="Vector_2" d="M138.386 27.06C137.572 27.06 136.752 27.0067 135.926 26.9C135.112 26.7933 134.379 26.64 133.726 26.44V23.82C135.152 24.14 136.579 24.3 138.006 24.3C138.912 24.3 139.599 24.1 140.066 23.7C140.532 23.3 140.766 22.7467 140.766 22.04C140.032 22.52 139.159 22.76 138.146 22.76C137.159 22.76 136.292 22.52 135.546 22.04C134.799 21.56 134.226 20.9 133.826 20.06C133.426 19.2067 133.226 18.2267 133.226 17.12C133.226 16.0133 133.426 15.0333 133.826 14.18C134.239 13.3133 134.812 12.64 135.546 12.16C136.292 11.68 137.159 11.44 138.146 11.44C139.066 11.44 139.939 11.7467 140.766 12.36V11.7H143.886V22.46C143.886 25.5267 142.052 27.06 138.386 27.06ZM136.286 17.12C136.286 17.7333 136.406 18.2933 136.646 18.8C136.899 19.3067 137.226 19.7133 137.626 20.02C138.039 20.3133 138.472 20.46 138.926 20.46C139.259 20.46 139.632 20.3867 140.046 20.24C140.459 20.08 140.812 19.7533 141.106 19.26L141.206 18.86V15.16C140.926 14.5867 140.566 14.2133 140.126 14.04C139.686 13.8533 139.286 13.76 138.926 13.76C138.472 13.76 138.039 13.9067 137.626 14.2C137.226 14.4933 136.899 14.9 136.646 15.42C136.406 15.9267 136.286 16.4933 136.286 17.12Z" fill="black" fill-opacity="0.88"/>
<path id="Vector_3" d="M129.052 11.7V12.86C129.399 12.4867 129.812 12.2 130.292 12C130.786 11.7867 131.272 11.68 131.752 11.68C132.086 11.68 132.399 11.7267 132.692 11.82V14.28C132.319 14.1867 131.966 14.14 131.632 14.14C131.126 14.14 130.646 14.2267 130.192 14.4C129.739 14.56 129.359 14.82 129.052 15.18V22.5H125.852V11.7H129.052Z" fill="black" fill-opacity="0.88"/>
<path id="Vector_4" d="M123.524 21.92C123.017 22.2266 122.424 22.4533 121.744 22.6C121.077 22.7466 120.43 22.82 119.804 22.82C117.67 22.82 116.05 22.3133 114.944 21.3C113.85 20.2866 113.304 18.8667 113.304 17.04C113.304 15.2267 113.79 13.84 114.764 12.88C115.75 11.9066 117.09 11.42 118.784 11.42C120.464 11.42 121.79 11.9066 122.764 12.88C123.75 13.84 124.244 15.2267 124.244 17.04C124.244 17.24 124.23 17.5266 124.204 17.9H116.424C116.717 19.62 117.844 20.48 119.804 20.48C121.177 20.48 122.417 20.0733 123.524 19.26V21.92ZM121.224 15.66C121.05 14.9933 120.75 14.5 120.324 14.18C119.897 13.86 119.384 13.7 118.784 13.7C118.224 13.7 117.744 13.8666 117.344 14.2C116.957 14.5333 116.684 15.02 116.524 15.66H121.224Z" fill="black" fill-opacity="0.88"/>
<path id="Vector_5" d="M99.3491 8.5H102.929L106.289 20.28H106.369L109.729 8.5H113.309L108.989 22.5H103.669L99.3491 8.5Z" fill="black" fill-opacity="0.88"/>
<path id="Vector_6" d="M86.2201 7.12V12.86C86.7001 12.46 87.2335 12.1533 87.8201 11.94C88.4068 11.7133 89.0001 11.6 89.6001 11.6C90.6268 11.6 91.4401 11.9 92.0401 12.5C92.6535 13.1 92.9601 13.88 92.9601 14.84V22.5H89.7601V15.38C89.7601 14.9933 89.6001 14.68 89.2801 14.44C88.9601 14.1867 88.5801 14.06 88.1401 14.06C87.8868 14.06 87.5735 14.14 87.2001 14.3C86.8268 14.46 86.5001 14.66 86.2201 14.9V22.5H83.0201V7.12H86.2201Z" fill="black" fill-opacity="0.88"/>
<path id="Vector_7" d="M77.7898 22.74C76.9765 22.78 76.1498 22.7133 75.3098 22.54C74.4832 22.38 73.7632 22.1267 73.1498 21.78V18.9C73.6965 19.3 74.3498 19.6333 75.1098 19.9C75.8832 20.1533 76.5632 20.26 77.1498 20.22C77.5632 20.1933 77.8632 20.1067 78.0498 19.96C78.2365 19.8 78.3432 19.64 78.3698 19.48C78.4365 19.0667 78.3365 18.7533 78.0698 18.54C77.8032 18.3267 77.3032 18.12 76.5698 17.92C75.7565 17.6933 75.1098 17.4333 74.6298 17.14C74.1498 16.8333 73.7832 16.4933 73.5298 16.12C73.2898 15.7333 73.1698 15.2467 73.1698 14.66C73.1698 14.0467 73.3298 13.5 73.6498 13.02C73.9698 12.5267 74.4765 12.14 75.1698 11.86C75.8632 11.58 76.6098 11.44 77.4098 11.44C78.0098 11.44 78.6165 11.5 79.2298 11.62C79.8432 11.7267 80.3565 11.8733 80.7698 12.06V14.64C80.3432 14.4267 79.8365 14.24 79.2498 14.08C78.6765 13.9067 78.1765 13.82 77.7498 13.82C76.8432 13.82 76.3498 14.06 76.2698 14.54C76.2298 14.82 76.3565 15.0667 76.6498 15.28C76.9565 15.4933 77.3898 15.6867 77.9498 15.86C78.7498 16.1133 79.4032 16.3733 79.9098 16.64C80.4298 16.9067 80.8365 17.2533 81.1298 17.68C81.4232 18.1067 81.5698 18.6533 81.5698 19.32C81.5698 20.3067 81.2165 21.1133 80.5098 21.74C79.8032 22.3533 78.8965 22.6867 77.7898 22.74Z" fill="black" fill-opacity="0.88"/>
<path id="Vector_8" d="M65.667 22.76C64.6537 22.76 63.767 22.52 63.007 22.04C62.2603 21.56 61.6803 20.9 61.267 20.06C60.867 19.22 60.667 18.24 60.667 17.12C60.667 16.0133 60.867 15.0333 61.267 14.18C61.6803 13.3133 62.2537 12.64 62.987 12.16C63.7337 11.68 64.6003 11.44 65.587 11.44C66.0403 11.44 66.4937 11.5267 66.947 11.7C67.4137 11.86 67.847 12.0867 68.247 12.38V11.7H71.447V19.98C71.447 21.06 71.5803 21.9 71.847 22.5H68.847C68.7537 22.3133 68.6737 22.0733 68.607 21.78C67.7803 22.4333 66.8003 22.76 65.667 22.76ZM63.727 17.12C63.727 17.7333 63.847 18.2933 64.087 18.8C64.3403 19.3067 64.667 19.7133 65.067 20.02C65.4803 20.3133 65.9137 20.46 66.367 20.46C66.687 20.46 67.047 20.3933 67.447 20.26C67.847 20.1133 68.1937 19.8067 68.487 19.34V14.86C68.1937 14.3933 67.847 14.0933 67.447 13.96C67.0603 13.8267 66.7003 13.76 66.367 13.76C65.9137 13.76 65.4803 13.9067 65.067 14.2C64.667 14.4933 64.3403 14.9 64.087 15.42C63.847 15.9267 63.727 16.4933 63.727 17.12Z" fill="black" fill-opacity="0.88"/>
<path id="Vector_9" d="M58.3398 22.66C57.1398 22.66 56.2332 22.3267 55.6198 21.66C55.0065 20.98 54.6998 19.9867 54.6998 18.68V7.12H57.8998V17.88C57.8998 18.4133 57.9398 18.82 58.0198 19.1C58.0998 19.38 58.2332 19.5933 58.4198 19.74C58.5665 19.86 58.7265 19.94 58.8998 19.98C59.0865 20.0067 59.4065 20.02 59.8598 20.02V22.66H58.3398Z" fill="black" fill-opacity="0.88"/>
<path id="Vector_10" d="M48.6679 22.76C47.1479 22.76 45.7946 22.48 44.6079 21.92C43.4346 21.36 42.5079 20.5467 41.8279 19.48C41.1613 18.4133 40.8279 17.1467 40.8279 15.68C40.8279 14.1333 41.1546 12.8067 41.8079 11.7C42.4613 10.58 43.3746 9.72666 44.5479 9.13999C45.7213 8.53999 47.0613 8.23999 48.5679 8.23999C49.3146 8.23999 50.0679 8.31332 50.8279 8.45999C51.5879 8.60666 52.2146 8.79332 52.7079 9.01999V11.5C51.3613 11.0067 50.1079 10.76 48.9479 10.76C47.5613 10.76 46.4346 11.1667 45.5679 11.98C44.7146 12.7933 44.2879 14.0267 44.2879 15.68C44.2879 16.56 44.5013 17.34 44.9279 18.02C45.3546 18.6867 45.9146 19.2067 46.6079 19.58C47.3013 19.9533 48.0479 20.1667 48.8479 20.22L49.2879 20.24C49.9013 20.24 50.5079 20.1533 51.1079 19.98C51.7079 19.8067 52.2413 19.5733 52.7079 19.28V22.04C52.1346 22.3067 51.5213 22.4933 50.8679 22.6C50.2279 22.7067 49.4946 22.76 48.6679 22.76Z" fill="black" fill-opacity="0.88"/>
</g>
<g id="svgg">
<path id="path0" fill-rule="evenodd" clip-rule="evenodd" d="M9.45822 0.677484C9.3398 0.703426 9.17301 0.923458 9.0706 1.18905C8.96051 1.4745 8.87876 1.85323 8.58394 3.44325C8.54639 3.64583 8.48153 3.98453 8.43973 4.19591C8.36951 4.55118 8.29961 4.92366 8.18135 5.57311C8.15565 5.71403 8.12018 5.9014 8.10248 5.98947C8.06741 6.16362 8.06981 6.14953 7.88181 7.27059C7.7408 8.11148 7.68251 8.47284 7.60541 8.98408C7.57754 9.16904 7.53446 9.45009 7.50972 9.60863C7.41844 10.1929 7.36336 10.6506 7.38089 10.679C7.39082 10.695 7.38433 10.7129 7.36648 10.7189C7.34862 10.7248 7.75498 10.7254 8.26943 10.7202C9.32979 10.7095 9.26581 10.7279 9.31682 10.4189C9.83575 7.27691 14.3593 7.22095 14.9424 10.3493C14.9716 10.5056 15.0102 10.6515 15.0283 10.6736C15.0794 10.7361 18.3935 10.7314 18.4455 10.6687C18.4659 10.6441 18.4972 10.5324 18.515 10.4205C19.0191 7.25049 23.6398 7.23912 24.1507 10.4067C24.2031 10.7313 24.1695 10.7178 24.8987 10.7069C25.2439 10.7017 25.5312 10.7048 25.5371 10.7136C25.543 10.7224 25.5427 10.7097 25.5365 10.6854C25.5302 10.6611 25.5038 10.5062 25.4777 10.3411C25.4516 10.1761 25.4086 9.90769 25.3822 9.74475C25.3151 9.3311 25.247 8.90906 25.2079 8.6638C25.1896 8.5493 25.1601 8.37635 25.1423 8.27947C25.1244 8.18258 25.0157 7.52681 24.9006 6.8222C24.3635 3.53493 24.3419 3.42372 23.8725 1.52158C23.6976 0.813202 23.5903 0.655544 23.2844 0.657706C23.0543 0.659308 22.6641 0.96069 22.3732 1.36144C22.2201 1.57218 20.9436 3.8203 20.5748 4.52844C20.3371 4.98492 20.3095 4.99573 19.6652 4.88467C17.5159 4.51411 15.5699 4.51459 13.6502 4.88611C13.0409 5.00405 13.1305 5.06034 12.6174 4.23642C10.7197 1.18905 10.1342 0.529434 9.45822 0.677484ZM11.7925 8.28003C9.87787 8.54514 8.89445 10.7711 10.0046 12.3269C11.2533 14.0767 13.9085 13.6821 14.6101 11.6424C15.2133 9.88887 13.6496 8.02292 11.7925 8.28003ZM20.9824 8.28027C18.8789 8.57092 17.9941 11.1556 19.4855 12.653C21.1704 14.3446 24.0109 13.1217 23.916 10.7456C23.855 9.21813 22.491 8.07185 20.9824 8.28027ZM12.6191 9.804C13.0588 10.0043 13.3191 10.4505 13.2838 10.9437C13.2016 12.0928 11.6167 12.3967 11.1069 11.3611C10.63 10.3924 11.6361 9.35641 12.6191 9.804ZM21.8746 9.78454C22.4026 10.0511 22.6828 10.7103 22.4872 11.226C22.0376 12.4115 20.3053 12.2117 20.1885 10.9608C20.1076 10.0944 21.1072 9.39708 21.8746 9.78454ZM7.30242 11.0026C7.30242 11.0597 7.28152 11.2449 7.25606 11.4144C7.20097 11.7804 7.01153 13.1933 6.86908 14.3007C6.84298 14.5033 6.80695 14.7699 6.78885 14.8932C6.77084 15.0165 6.74121 15.2471 6.72304 15.4057C6.70486 15.5642 6.66891 15.8669 6.64305 16.0783C6.55665 16.785 6.41941 17.957 6.35792 18.5124C6.31492 18.9007 6.2881 19.1354 6.16439 20.2099C6.10546 20.7213 6.03772 21.3373 5.9707 21.9714C5.94284 22.2356 5.90833 22.5599 5.89423 22.692C5.88006 22.8241 5.8502 23.1268 5.82786 23.3646C5.80544 23.6024 5.77861 23.8068 5.76813 23.8189C5.74114 23.85 4.77526 23.6715 4.32607 23.5525C2.77592 23.1414 2.08956 21.6632 2.85254 20.3789C3.04479 20.0552 3.32416 19.7925 3.98713 19.3116C4.65059 18.8303 4.74515 18.7243 4.76501 18.4405C4.80176 17.9147 4.05775 17.6693 3.24697 17.9396C-0.49053 19.1861 -0.311734 24.4878 3.5076 25.6667C4.04687 25.8332 4.64811 25.93 5.42559 25.9754C5.79791 25.9972 6.02147 26.0343 6.58027 26.167C7.11202 26.2933 8.02425 26.3452 12.4909 26.5032C13.67 26.5448 20.4332 26.5451 21.4395 26.5034C21.8641 26.4859 22.5717 26.4569 23.0121 26.4391C24.2493 26.389 26.1475 26.2583 26.6793 26.1866C27.4684 26.0803 27.5352 25.9081 27.371 24.4055C27.3441 24.1589 27.2997 23.7409 27.2724 23.4767C27.2451 23.2125 27.2005 22.7873 27.1733 22.5319C27.1461 22.2765 27.1036 21.8729 27.0788 21.6351C26.9853 20.7378 26.8755 19.7583 26.7932 19.0889C26.6717 18.1008 26.6343 17.8259 26.4558 16.6067C26.4003 16.228 26.3417 15.8244 26.3255 15.7099C26.3093 15.5954 26.2814 15.4153 26.2636 15.3096C26.2457 15.2039 26.1585 14.6418 26.0697 14.0605C25.9809 13.4792 25.8725 12.7802 25.8288 12.5072C25.7851 12.2341 25.7285 11.881 25.703 11.7225C25.6776 11.5639 25.6386 11.315 25.6164 11.1693C25.583 10.9502 25.5675 10.9086 25.5271 10.9286C25.5003 10.9419 25.2044 10.9601 24.8697 10.9693C24.1707 10.9883 24.1939 10.9806 24.1659 11.202C23.9784 12.6853 22.6627 13.7699 21.1569 13.6825C19.8215 13.6049 18.6989 12.5764 18.5124 11.2597C18.4682 10.9478 18.6032 10.9698 16.7346 10.9698C14.8693 10.9698 15.0077 10.9469 14.9582 11.2632C14.4638 14.4187 9.89316 14.4872 9.33291 11.3475C9.26285 10.9552 9.35117 10.9881 8.31779 10.9698C7.82095 10.961 7.3893 10.9415 7.35847 10.9263C7.31099 10.9031 7.30242 10.9147 7.30242 11.0026ZM16.896 13.3104C17.1548 13.5754 17.2466 13.6087 17.6512 13.5841C18.0347 13.5608 18.0835 13.5858 17.9605 13.7421C17.7675 13.9876 17.3218 13.9679 16.8771 13.6942C16.6796 13.5726 16.6422 13.5726 16.4624 13.6926C16.0284 13.9822 15.4984 13.9913 15.3414 13.712C15.2793 13.6015 15.3378 13.5533 15.5016 13.5802C15.9854 13.6596 16.139 13.6161 16.4064 13.3243C16.6173 13.094 16.6828 13.0921 16.896 13.3104Z" fill="#40416F"/>
<path id="path1" fill-rule="evenodd" clip-rule="evenodd" d="M11.8504 8.025C10.5709 8.14655 9.53748 9.11964 9.31833 10.4093C9.26212 10.7404 9.34395 10.7167 8.29359 10.7065C7.78699 10.7016 7.3792 10.7084 7.38736 10.7216C7.39561 10.7348 7.38881 10.7456 7.37239 10.7456C7.3177 10.7456 7.34116 10.9071 7.40042 10.9388C7.43364 10.9566 7.82527 10.9698 8.31906 10.9698C9.33226 10.9698 9.2614 10.9434 9.33314 11.3475C9.89043 14.487 14.4638 14.4184 14.9582 11.2632C15.0077 10.9469 14.8692 10.9698 16.7346 10.9698C18.6032 10.9698 18.4682 10.9478 18.5124 11.2597C18.6989 12.5764 19.8215 13.6049 21.1569 13.6825C22.6629 13.7699 23.9784 12.6854 24.166 11.2015C24.1947 10.9745 24.2087 10.9698 24.8697 10.9698C25.5413 10.9698 25.5911 10.9505 25.5305 10.7136C25.5282 10.7048 25.2439 10.7017 24.8986 10.7069C24.1695 10.7177 24.2031 10.7313 24.1507 10.4067C23.6398 7.23912 19.0191 7.25049 18.515 10.4205C18.4972 10.5324 18.4659 10.6441 18.4455 10.6687C18.3934 10.7314 15.0794 10.7361 15.0283 10.6736C15.0102 10.6515 14.9716 10.5056 14.9424 10.3493C14.6683 8.87903 13.3435 7.88312 11.8504 8.025ZM12.8021 8.34528C14.7233 8.83667 15.3762 11.2607 13.967 12.6702C12.5233 14.1142 10.0802 13.4169 9.60394 11.4249C9.15747 9.55746 10.917 7.86318 12.8021 8.34528ZM21.9918 8.34472C23.9475 8.84484 24.5864 11.3235 23.1189 12.7171C21.4567 14.2956 18.7514 13.1333 18.7539 10.8417C18.7557 9.13637 20.3326 7.92035 21.9918 8.34472ZM11.8938 9.72016C11.1697 9.87333 10.7773 10.6916 11.1069 11.3611C11.6167 12.3967 13.2016 12.0928 13.2838 10.9437C13.339 10.1728 12.6443 9.56146 11.8938 9.72016ZM20.9856 9.75179C20.3315 9.98711 20.0081 10.7302 20.2904 11.3493C20.6448 12.1268 21.7464 12.2582 22.2755 11.5861C23.0112 10.6516 22.0972 9.35176 20.9856 9.75179ZM16.4063 13.3243C16.139 13.6161 15.9854 13.6596 15.5016 13.5802C15.3378 13.5533 15.2793 13.6015 15.3414 13.712C15.4984 13.9913 16.0284 13.9822 16.4624 13.6926C16.6422 13.5726 16.6795 13.5726 16.8771 13.6942C17.3218 13.9679 17.7674 13.9876 17.9605 13.7421C18.0835 13.5858 18.0346 13.5608 17.6512 13.5841C17.2466 13.6087 17.1548 13.5754 16.896 13.3104C16.6827 13.0921 16.6172 13.094 16.4063 13.3243Z" fill="white"/>
</g>
</g>
<defs>
<clipPath id="clip0_189_16">
<rect width="157" height="27" fill="white" transform="translate(0 0.5)"/>
</clipPath>
</defs>
</svg>
