<svg id="svg" version="1.1" xmlns="http://www.w3.org/2000/svg" xmlns:xlink="http://www.w3.org/1999/xlink" width="400"
  height="400" viewBox="0, 0, 400,400">
  <defs>
    <linearGradient id="Gradient2" x1="0" x2="-0.1" y1="0" y2="1">
      <stop offset="0%" stop-color="#5b5c9d" />
      <stop offset="80%" stop-color="rgb(63, 64, 109)" />
      <stop offset="100%" stop-color="rgb(63, 64, 109)" />
    </linearGradient>
  </defs>
  <g id="svgg">
    <path id="path0"
      d="M118.124 39.858 C 116.645 40.182,114.562 42.930,113.283 46.247 C 111.908 49.812,110.887 54.542,107.205 74.400 C 106.736 76.930,105.926 81.160,105.404 83.800 C 104.527 88.237,103.654 92.889,102.177 101.000 C 101.856 102.760,101.413 105.100,101.192 106.200 C 100.754 108.375,100.784 108.199,98.436 122.200 C 96.675 132.702,95.947 137.215,94.984 143.600 C 94.636 145.910,94.098 149.420,93.789 151.400 C 92.649 158.697,91.961 164.413,92.180 164.768 C 92.304 164.968,92.223 165.192,92.000 165.266 C 91.777 165.340,96.852 165.347,103.277 165.282 C 116.520 165.149,115.721 165.379,116.358 161.519 C 122.839 122.279,179.334 121.580,186.617 160.650 C 186.981 162.602,187.463 164.425,187.689 164.700 C 188.328 165.481,229.717 165.423,230.367 164.640 C 230.622 164.332,231.013 162.937,231.235 161.540 C 237.531 121.949,295.239 121.807,301.620 161.367 C 302.274 165.421,301.855 165.252,310.962 165.117 C 315.273 165.052,318.861 165.090,318.935 165.200 C 319.009 165.310,319.005 165.152,318.927 164.848 C 318.849 164.545,318.519 162.610,318.193 160.548 C 317.867 158.487,317.330 155.135,317.000 153.100 C 316.162 147.934,315.312 142.663,314.823 139.600 C 314.595 138.170,314.226 136.010,314.004 134.800 C 313.781 133.590,312.423 125.400,310.985 116.600 C 304.278 75.545,304.008 74.156,298.145 50.400 C 295.961 41.553,294.621 39.584,290.800 39.611 C 287.927 39.631,283.053 43.395,279.420 48.400 C 277.509 51.032,261.566 79.109,256.960 87.953 C 253.991 93.654,253.647 93.789,245.600 92.402 C 218.757 87.774,194.454 87.780,170.478 92.420 C 162.868 93.893,163.987 94.596,157.579 84.306 C 133.879 46.247,126.566 38.009,118.124 39.858 M147.277 134.807 C 123.365 138.118,111.083 165.918,124.948 185.349 C 140.543 207.202,173.704 202.274,182.466 176.800 C 190.000 154.900,170.471 131.596,147.277 134.807 M262.051 134.810 C 235.780 138.440,224.730 170.720,243.356 189.422 C 264.398 210.548,299.874 195.275,298.689 165.600 C 297.927 146.523,280.892 132.207,262.051 134.810 M157.600 153.840 C 163.092 156.341,166.343 161.914,165.902 168.074 C 164.875 182.425,145.082 186.221,138.715 173.287 C 132.759 161.189,145.324 148.250,157.600 153.840 M273.193 153.597 C 279.788 156.926,283.287 165.159,280.844 171.600 C 275.229 186.406,253.594 183.910,252.135 168.287 C 251.125 157.467,263.609 148.758,273.193 153.597 M91.200 168.809 C 91.200 169.522,90.939 171.836,90.621 173.952 C 89.933 178.523,87.567 196.170,85.788 210.000 C 85.462 212.530,85.012 215.860,84.786 217.400 C 84.561 218.940,84.191 221.820,83.964 223.800 C 83.737 225.780,83.288 229.560,82.965 232.200 C 81.886 241.026,80.172 255.664,79.404 262.600 C 78.867 267.450,78.532 270.381,76.987 283.800 C 76.251 290.187,75.405 297.881,74.568 305.800 C 74.220 309.100,73.789 313.150,73.613 314.800 C 73.436 316.450,73.063 320.230,72.784 323.200 C 72.504 326.170,72.169 328.723,72.038 328.874 C 71.701 329.262,59.638 327.033,54.028 325.546 C 34.668 320.412,26.096 301.951,35.625 285.911 C 38.026 281.869,41.515 278.587,49.795 272.581 C 58.081 266.570,59.262 265.247,59.510 261.702 C 59.969 255.136,50.677 252.070,40.551 255.447 C -6.127 271.014,-3.894 337.227,43.806 351.951 C 50.541 354.030,58.050 355.239,67.760 355.807 C 72.410 356.079,75.202 356.542,82.181 358.199 C 88.822 359.777,100.215 360.425,156.000 362.398 C 170.725 362.918,255.192 362.921,267.760 362.401 C 273.062 362.182,281.900 361.820,287.400 361.597 C 302.851 360.972,326.558 359.339,333.200 358.444 C 343.055 357.116,343.889 354.966,341.839 336.200 C 341.502 333.120,340.948 327.900,340.607 324.600 C 340.266 321.300,339.709 315.990,339.370 312.800 C 339.030 309.610,338.499 304.570,338.189 301.600 C 337.022 290.393,335.650 278.160,334.622 269.800 C 333.105 257.460,332.638 254.027,330.408 238.800 C 329.716 234.070,328.983 229.030,328.781 227.600 C 328.579 226.170,328.231 223.920,328.008 222.600 C 327.785 221.280,326.695 214.260,325.587 207.000 C 324.478 199.740,323.124 191.010,322.578 187.600 C 322.032 184.190,321.325 179.780,321.007 177.800 C 320.689 175.820,320.203 172.711,319.925 170.892 C 319.508 168.155,319.315 167.635,318.810 167.885 C 318.475 168.051,314.780 168.279,310.600 168.393 C 301.870 168.631,302.159 168.535,301.810 171.300 C 299.468 189.825,283.036 203.371,264.230 202.279 C 247.552 201.310,233.532 188.465,231.203 172.020 C 230.651 168.125,232.337 168.400,209.000 168.400 C 185.703 168.400,187.432 168.114,186.814 172.064 C 180.639 211.474,123.556 212.329,116.559 173.117 C 115.684 168.218,116.787 168.629,103.881 168.400 C 97.676 168.290,92.285 168.046,91.900 167.857 C 91.307 167.567,91.200 167.712,91.200 168.809 M211.015 197.632 C 214.247 200.942,215.394 201.357,220.447 201.050 C 225.236 200.759,225.846 201.071,224.310 203.023 C 221.899 206.089,216.333 205.843,210.779 202.425 C 208.312 200.907,207.846 200.906,205.600 202.405 C 200.180 206.022,193.561 206.136,191.600 202.647 C 190.824 201.267,191.555 200.665,193.600 201.001 C 199.643 201.993,201.561 201.450,204.900 197.805 C 207.534 194.929,208.352 194.906,211.015 197.632 "
      stroke="none" fill="url(#Gradient2)" fill-rule="evenodd"></path>
    <path id="path1"
      d="M148.000 131.622 C 132.020 133.140,119.114 145.293,116.377 161.400 C 115.675 165.535,116.697 165.239,103.579 165.112 C 97.252 165.050,92.159 165.135,92.261 165.300 C 92.364 165.465,92.279 165.600,92.074 165.600 C 91.391 165.600,91.684 167.617,92.424 168.013 C 92.839 168.235,97.730 168.400,103.897 168.400 C 116.551 168.400,115.666 168.070,116.562 173.117 C 123.522 212.326,180.639 211.470,186.814 172.064 C 187.432 168.114,185.703 168.400,209.000 168.400 C 232.337 168.400,230.651 168.125,231.203 172.020 C 233.532 188.465,247.552 201.310,264.230 202.279 C 283.039 203.371,299.468 189.826,301.811 171.294 C 302.169 168.458,302.345 168.400,310.600 168.400 C 318.988 168.400,319.609 168.159,318.852 165.200 C 318.824 165.090,315.273 165.052,310.961 165.117 C 301.855 165.252,302.274 165.421,301.620 161.367 C 295.239 121.807,237.531 121.949,231.235 161.540 C 231.013 162.937,230.622 164.332,230.367 164.640 C 229.717 165.423,188.328 165.481,187.689 164.700 C 187.463 164.425,186.981 162.602,186.617 160.650 C 183.194 142.288,166.648 129.850,148.000 131.622 M159.886 135.622 C 183.880 141.759,192.035 172.033,174.435 189.636 C 156.404 207.671,125.892 198.962,119.944 174.084 C 114.368 150.761,136.343 129.601,159.886 135.622 M274.658 135.615 C 299.082 141.861,307.061 172.817,288.734 190.222 C 267.975 209.936,234.188 195.420,234.219 166.800 C 234.241 145.502,253.935 130.315,274.658 135.615 M148.542 152.793 C 139.499 154.706,134.598 164.925,138.715 173.287 C 145.082 186.221,164.875 182.425,165.902 168.074 C 166.591 158.446,157.916 150.811,148.542 152.793 M262.091 153.188 C 253.922 156.127,249.883 165.408,253.408 173.139 C 257.835 182.850,271.593 184.491,278.201 176.097 C 287.389 164.426,275.974 148.192,262.091 153.188 M204.900 197.805 C 201.561 201.450,199.643 201.993,193.600 201.001 C 191.555 200.665,190.824 201.267,191.600 202.647 C 193.561 206.136,200.180 206.022,205.600 202.405 C 207.846 200.906,208.312 200.907,210.779 202.425 C 216.333 205.843,221.899 206.089,224.310 203.023 C 225.846 201.071,225.236 200.759,220.447 201.050 C 215.394 201.357,214.247 200.942,211.015 197.632 C 208.352 194.906,207.534 194.929,204.900 197.805 "
      stroke="none" fill="#ffffff" fill-rule="evenodd"></path>
  </g>
</svg>
