<svg width="157" height="27" viewBox="0 0 157 27" fill="none" xmlns="http://www.w3.org/2000/svg">
<g clip-path="url(#clip0_745_54)">
<path d="M155.711 21.42C155.205 21.7266 154.611 21.9533 153.931 22.1C153.265 22.2466 152.618 22.32 151.991 22.32C149.858 22.32 148.238 21.8133 147.131 20.8C146.038 19.7866 145.491 18.3667 145.491 16.54C145.491 14.7267 145.978 13.34 146.951 12.38C147.938 11.4066 149.278 10.92 150.971 10.92C152.651 10.92 153.978 11.4066 154.951 12.38C155.938 13.34 156.431 14.7267 156.431 16.54C156.431 16.74 156.418 17.0266 156.391 17.4H148.611C148.905 19.12 150.031 19.98 151.991 19.98C153.365 19.98 154.605 19.5733 155.711 18.76V21.42ZM153.411 15.16C153.238 14.4933 152.938 14 152.511 13.68C152.085 13.36 151.571 13.2 150.971 13.2C150.411 13.2 149.931 13.3666 149.531 13.7C149.145 14.0333 148.871 14.52 148.711 15.16H153.411Z" fill="white"/>
<path d="M138.386 26.56C137.572 26.56 136.752 26.5067 135.926 26.4C135.112 26.2933 134.379 26.14 133.726 25.94V23.32C135.152 23.64 136.579 23.8 138.006 23.8C138.912 23.8 139.599 23.6 140.066 23.2C140.532 22.8 140.766 22.2467 140.766 21.54C140.032 22.02 139.159 22.26 138.146 22.26C137.159 22.26 136.292 22.02 135.546 21.54C134.799 21.06 134.226 20.4 133.826 19.56C133.426 18.7067 133.226 17.7267 133.226 16.62C133.226 15.5133 133.426 14.5333 133.826 13.68C134.239 12.8133 134.812 12.14 135.546 11.66C136.292 11.18 137.159 10.94 138.146 10.94C139.066 10.94 139.939 11.2467 140.766 11.86V11.2H143.886V21.96C143.886 25.0267 142.052 26.56 138.386 26.56ZM136.286 16.62C136.286 17.2333 136.406 17.7933 136.646 18.3C136.899 18.8067 137.226 19.2133 137.626 19.52C138.039 19.8133 138.472 19.96 138.926 19.96C139.259 19.96 139.632 19.8867 140.046 19.74C140.459 19.58 140.812 19.2533 141.106 18.76L141.206 18.36V14.66C140.926 14.0867 140.566 13.7133 140.126 13.54C139.686 13.3533 139.286 13.26 138.926 13.26C138.472 13.26 138.039 13.4067 137.626 13.7C137.226 13.9933 136.899 14.4 136.646 14.92C136.406 15.4267 136.286 15.9933 136.286 16.62Z" fill="white"/>
<path d="M129.052 11.2V12.36C129.399 11.9867 129.812 11.7 130.292 11.5C130.786 11.2867 131.272 11.18 131.752 11.18C132.086 11.18 132.399 11.2267 132.692 11.32V13.78C132.319 13.6867 131.966 13.64 131.632 13.64C131.126 13.64 130.646 13.7267 130.192 13.9C129.739 14.06 129.359 14.32 129.052 14.68V22H125.852V11.2H129.052Z" fill="white"/>
<path d="M123.524 21.42C123.017 21.7266 122.424 21.9533 121.744 22.1C121.077 22.2466 120.43 22.32 119.804 22.32C117.67 22.32 116.05 21.8133 114.944 20.8C113.85 19.7866 113.304 18.3667 113.304 16.54C113.304 14.7267 113.79 13.34 114.764 12.38C115.75 11.4066 117.09 10.92 118.784 10.92C120.464 10.92 121.79 11.4066 122.764 12.38C123.75 13.34 124.244 14.7267 124.244 16.54C124.244 16.74 124.23 17.0266 124.204 17.4H116.424C116.717 19.12 117.844 19.98 119.804 19.98C121.177 19.98 122.417 19.5733 123.524 18.76V21.42ZM121.224 15.16C121.05 14.4933 120.75 14 120.324 13.68C119.897 13.36 119.384 13.2 118.784 13.2C118.224 13.2 117.744 13.3666 117.344 13.7C116.957 14.0333 116.684 14.52 116.524 15.16H121.224Z" fill="white"/>
<path d="M99.3491 8H102.929L106.289 19.78H106.369L109.729 8H113.309L108.989 22H103.669L99.3491 8Z" fill="white"/>
<path d="M86.2201 6.62V12.36C86.7001 11.96 87.2335 11.6533 87.8201 11.44C88.4068 11.2133 89.0001 11.1 89.6001 11.1C90.6268 11.1 91.4401 11.4 92.0401 12C92.6535 12.6 92.9601 13.38 92.9601 14.34V22H89.7601V14.88C89.7601 14.4933 89.6001 14.18 89.2801 13.94C88.9601 13.6867 88.5801 13.56 88.1401 13.56C87.8868 13.56 87.5735 13.64 87.2001 13.8C86.8268 13.96 86.5001 14.16 86.2201 14.4V22H83.0201V6.62H86.2201Z" fill="white"/>
<path d="M77.7898 22.24C76.9765 22.28 76.1498 22.2133 75.3098 22.04C74.4832 21.88 73.7632 21.6267 73.1498 21.28V18.4C73.6965 18.8 74.3498 19.1333 75.1098 19.4C75.8832 19.6533 76.5632 19.76 77.1498 19.72C77.5632 19.6933 77.8632 19.6067 78.0498 19.46C78.2365 19.3 78.3432 19.14 78.3698 18.98C78.4365 18.5667 78.3365 18.2533 78.0698 18.04C77.8032 17.8267 77.3032 17.62 76.5698 17.42C75.7565 17.1933 75.1098 16.9333 74.6298 16.64C74.1498 16.3333 73.7832 15.9933 73.5298 15.62C73.2898 15.2333 73.1698 14.7467 73.1698 14.16C73.1698 13.5467 73.3298 13 73.6498 12.52C73.9698 12.0267 74.4765 11.64 75.1698 11.36C75.8632 11.08 76.6098 10.94 77.4098 10.94C78.0098 10.94 78.6165 11 79.2298 11.12C79.8432 11.2267 80.3565 11.3733 80.7698 11.56V14.14C80.3432 13.9267 79.8365 13.74 79.2498 13.58C78.6765 13.4067 78.1765 13.32 77.7498 13.32C76.8432 13.32 76.3498 13.56 76.2698 14.04C76.2298 14.32 76.3565 14.5667 76.6498 14.78C76.9565 14.9933 77.3898 15.1867 77.9498 15.36C78.7498 15.6133 79.4032 15.8733 79.9098 16.14C80.4298 16.4067 80.8365 16.7533 81.1298 17.18C81.4232 17.6067 81.5698 18.1533 81.5698 18.82C81.5698 19.8067 81.2165 20.6133 80.5098 21.24C79.8032 21.8533 78.8965 22.1867 77.7898 22.24Z" fill="white"/>
<path d="M65.667 22.26C64.6537 22.26 63.767 22.02 63.007 21.54C62.2603 21.06 61.6803 20.4 61.267 19.56C60.867 18.72 60.667 17.74 60.667 16.62C60.667 15.5133 60.867 14.5333 61.267 13.68C61.6803 12.8133 62.2537 12.14 62.987 11.66C63.7337 11.18 64.6003 10.94 65.587 10.94C66.0403 10.94 66.4937 11.0267 66.947 11.2C67.4137 11.36 67.847 11.5867 68.247 11.88V11.2H71.447V19.48C71.447 20.56 71.5803 21.4 71.847 22H68.847C68.7537 21.8133 68.6737 21.5733 68.607 21.28C67.7803 21.9333 66.8003 22.26 65.667 22.26ZM63.727 16.62C63.727 17.2333 63.847 17.7933 64.087 18.3C64.3403 18.8067 64.667 19.2133 65.067 19.52C65.4803 19.8133 65.9137 19.96 66.367 19.96C66.687 19.96 67.047 19.8933 67.447 19.76C67.847 19.6133 68.1937 19.3067 68.487 18.84V14.36C68.1937 13.8933 67.847 13.5933 67.447 13.46C67.0603 13.3267 66.7003 13.26 66.367 13.26C65.9137 13.26 65.4803 13.4067 65.067 13.7C64.667 13.9933 64.3403 14.4 64.087 14.92C63.847 15.4267 63.727 15.9933 63.727 16.62Z" fill="white"/>
<path d="M58.3398 22.16C57.1398 22.16 56.2332 21.8267 55.6198 21.16C55.0065 20.48 54.6998 19.4867 54.6998 18.18V6.62H57.8998V17.38C57.8998 17.9133 57.9398 18.32 58.0198 18.6C58.0998 18.88 58.2332 19.0933 58.4198 19.24C58.5665 19.36 58.7265 19.44 58.8998 19.48C59.0865 19.5067 59.4065 19.52 59.8598 19.52V22.16H58.3398Z" fill="white"/>
<path d="M48.6679 22.26C47.1479 22.26 45.7946 21.98 44.6079 21.42C43.4346 20.86 42.5079 20.0467 41.8279 18.98C41.1613 17.9133 40.8279 16.6467 40.8279 15.18C40.8279 13.6333 41.1546 12.3067 41.8079 11.2C42.4613 10.08 43.3746 9.22666 44.5479 8.63999C45.7213 8.03999 47.0613 7.73999 48.5679 7.73999C49.3146 7.73999 50.0679 7.81332 50.8279 7.95999C51.5879 8.10666 52.2146 8.29332 52.7079 8.51999V11C51.3613 10.5067 50.1079 10.26 48.9479 10.26C47.5613 10.26 46.4346 10.6667 45.5679 11.48C44.7146 12.2933 44.2879 13.5267 44.2879 15.18C44.2879 16.06 44.5013 16.84 44.9279 17.52C45.3546 18.1867 45.9146 18.7067 46.6079 19.08C47.3013 19.4533 48.0479 19.6667 48.8479 19.72L49.2879 19.74C49.9013 19.74 50.5079 19.6533 51.1079 19.48C51.7079 19.3067 52.2413 19.0733 52.7079 18.78V21.54C52.1346 21.8067 51.5213 21.9933 50.8679 22.1C50.2279 22.2067 49.4946 22.26 48.6679 22.26Z" fill="white"/>
<path fill-rule="evenodd" clip-rule="evenodd" d="M9.45822 0.177484C9.3398 0.203426 9.17301 0.423458 9.0706 0.689049C8.96051 0.974498 8.87876 1.35323 8.58394 2.94325C8.54639 3.14583 8.48153 3.48453 8.43973 3.69591C8.36951 4.05118 8.29961 4.42366 8.18135 5.07311C8.15565 5.21403 8.12018 5.4014 8.10248 5.48947C8.06741 5.66362 8.06981 5.64953 7.88181 6.77059C7.7408 7.61148 7.68251 7.97284 7.60541 8.48408C7.57754 8.66904 7.53446 8.95009 7.50972 9.10863C7.41844 9.69289 7.36336 10.1506 7.38089 10.179C7.39082 10.195 7.38433 10.2129 7.36648 10.2189C7.34862 10.2248 7.75498 10.2254 8.26943 10.2202C9.32979 10.2095 9.26581 10.2279 9.31682 9.91885C9.83575 6.77691 14.3593 6.72095 14.9424 9.84927C14.9716 10.0056 15.0102 10.1515 15.0283 10.1736C15.0794 10.2361 18.3935 10.2314 18.4455 10.1687C18.4659 10.1441 18.4972 10.0324 18.515 9.92053C19.0191 6.75049 23.6398 6.73912 24.1507 9.90668C24.2031 10.2313 24.1695 10.2178 24.8987 10.2069C25.2439 10.2017 25.5312 10.2048 25.5371 10.2136C25.543 10.2224 25.5427 10.2097 25.5365 10.1854C25.5302 10.1611 25.5038 10.0062 25.4777 9.8411C25.4516 9.67608 25.4086 9.40769 25.3822 9.24475C25.3151 8.8311 25.247 8.40906 25.2079 8.1638C25.1896 8.0493 25.1601 7.87635 25.1423 7.77947C25.1244 7.68258 25.0157 7.02681 24.9006 6.3222C24.3635 3.03493 24.3419 2.92372 23.8725 1.02158C23.6976 0.313202 23.5903 0.155544 23.2844 0.157706C23.0543 0.159308 22.6641 0.46069 22.3732 0.86144C22.2201 1.07218 20.9436 3.3203 20.5748 4.02844C20.3371 4.48492 20.3095 4.49573 19.6652 4.38467C17.5159 4.01411 15.5699 4.01459 13.6502 4.38611C13.0409 4.50405 13.1305 4.56034 12.6174 3.73642C10.7197 0.689049 10.1342 0.0294346 9.45822 0.177484ZM11.7925 7.78003C9.87787 8.04514 8.89445 10.2711 10.0046 11.8269C11.2533 13.5767 13.9085 13.1821 14.6101 11.1424C15.2133 9.38887 13.6496 7.52292 11.7925 7.78003ZM20.9824 7.78027C18.8789 8.07092 17.9941 10.6556 19.4855 12.153C21.1704 13.8446 24.0109 12.6217 23.916 10.2456C23.855 8.71813 22.491 7.57185 20.9824 7.78027ZM12.6191 9.304C13.0588 9.50425 13.3191 9.95048 13.2838 10.4437C13.2016 11.5928 11.6167 11.8967 11.1069 10.8611C10.63 9.89243 11.6361 8.85641 12.6191 9.304ZM21.8746 9.28454C22.4026 9.55109 22.6828 10.2103 22.4872 10.726C22.0376 11.9115 20.3053 11.7117 20.1885 10.4608C20.1076 9.59441 21.1072 8.89708 21.8746 9.28454ZM7.30242 10.5026C7.30242 10.5597 7.28152 10.7449 7.25606 10.9144C7.20097 11.2804 7.01153 12.6933 6.86908 13.8007C6.84298 14.0033 6.80695 14.2699 6.78885 14.3932C6.77084 14.5165 6.74121 14.7471 6.72304 14.9057C6.70486 15.0642 6.66891 15.3669 6.64305 15.5783C6.55665 16.285 6.41941 17.457 6.35792 18.0124C6.31492 18.4007 6.2881 18.6354 6.16439 19.7099C6.10546 20.2213 6.03772 20.8373 5.9707 21.4714C5.94284 21.7356 5.90833 22.0599 5.89423 22.192C5.88006 22.3241 5.8502 22.6268 5.82786 22.8646C5.80544 23.1024 5.77861 23.3068 5.76813 23.3189C5.74114 23.35 4.77526 23.1715 4.32607 23.0525C2.77592 22.6414 2.08956 21.1632 2.85254 19.8789C3.04479 19.5552 3.32416 19.2925 3.98713 18.8116C4.65059 18.3303 4.74515 18.2243 4.76501 17.9405C4.80176 17.4147 4.05775 17.1693 3.24697 17.4396C-0.490531 18.6861 -0.311735 23.9878 3.5076 25.1667C4.04687 25.3332 4.64811 25.43 5.42559 25.4754C5.79791 25.4972 6.02147 25.5343 6.58027 25.667C7.11202 25.7933 8.02425 25.8452 12.4909 26.0032C13.67 26.0448 20.4332 26.0451 21.4395 26.0034C21.8641 25.9859 22.5717 25.9569 23.0121 25.9391C24.2493 25.889 26.1475 25.7583 26.6793 25.6866C27.4684 25.5803 27.5352 25.4081 27.371 23.9055C27.3441 23.6589 27.2997 23.2409 27.2724 22.9767C27.2451 22.7125 27.2005 22.2873 27.1733 22.0319C27.1461 21.7765 27.1036 21.3729 27.0788 21.1351C26.9853 20.2378 26.8755 19.2583 26.7932 18.5889C26.6717 17.6008 26.6343 17.3259 26.4558 16.1067C26.4003 15.728 26.3417 15.3244 26.3255 15.2099C26.3093 15.0954 26.2814 14.9153 26.2636 14.8096C26.2457 14.7039 26.1585 14.1418 26.0697 13.5605C25.9809 12.9792 25.8725 12.2802 25.8288 12.0072C25.7851 11.7341 25.7285 11.381 25.703 11.2225C25.6776 11.0639 25.6386 10.815 25.6164 10.6693C25.583 10.4502 25.5675 10.4086 25.5271 10.4286C25.5003 10.4419 25.2044 10.4601 24.8697 10.4693C24.1707 10.4883 24.1939 10.4806 24.1659 10.702C23.9784 12.1853 22.6627 13.2699 21.1569 13.1825C19.8215 13.1049 18.6989 12.0764 18.5124 10.7597C18.4682 10.4478 18.6032 10.4698 16.7346 10.4698C14.8693 10.4698 15.0077 10.4469 14.9582 10.7632C14.4638 13.9187 9.89316 13.9872 9.33291 10.8475C9.26285 10.4552 9.35117 10.4881 8.31779 10.4698C7.82095 10.461 7.3893 10.4415 7.35847 10.4263C7.31099 10.4031 7.30242 10.4147 7.30242 10.5026ZM16.896 12.8104C17.1548 13.0754 17.2466 13.1087 17.6512 13.0841C18.0347 13.0608 18.0835 13.0858 17.9605 13.2421C17.7675 13.4876 17.3218 13.4679 16.8771 13.1942C16.6796 13.0726 16.6422 13.0726 16.4624 13.1926C16.0284 13.4822 15.4984 13.4913 15.3414 13.212C15.2793 13.1015 15.3378 13.0533 15.5016 13.0802C15.9854 13.1596 16.139 13.1161 16.4064 12.8243C16.6173 12.594 16.6828 12.5921 16.896 12.8104Z" fill="white"/>
</g>
<defs>
<clipPath id="clip0_745_54">
<rect width="157" height="27" fill="white"/>
</clipPath>
</defs>
</svg>
