<svg version="1.1" id="layout1" xmlns="http://www.w3.org/2000/svg" xmlns:xlink="http://www.w3.org/1999/xlink" x="0px" y="0px"
	 viewBox="0 11.550000190734863 344.79998779296875 28.75" style="enable-background:new 0 0 117 27;" xml:space="preserve">
<g>
	<defs>
		<rect id="SVGID_1_" x="-39.9" width="157" height="27"/>
	</defs>
	<g style="clip-path:url(#SVGID_00000023248255305809236420000007367745325967865768_);">
		<path d="M0 15.00L5.85 11.55L16.20 11.55L16.20 17.20L6.50 17.20L6.50 34.45L16 34.45L16 40.30L5.85 40.30L0 36.90L0 15.00M28.15 31.00L28.15 34.45L18.65 34.45L18.65 40.30L28.80 40.30L34.65 36.90L34.65 31.00L28.15 31.00M34.65 20.70L34.65 15.00L28.80 11.55L18.45 11.55L18.45 17.20L28.15 17.20L28.15 20.70L34.65 20.70ZM43.65 11.55L49.95 11.55L49.95 34.45L59.45 34.45L59.45 40.30L43.65 40.30L43.65 11.55L43.65 11.55M62.10 34.45L62.10 40.30L78.10 40.30L78.10 34.45L62.10 34.45L62.10 34.45ZM82.60 15.00L88.30 11.55L98.60 11.55L98.60 17.20L88.90 17.20L88.90 23.10L98.60 23.10L98.60 28.80L88.90 28.80L88.90 40.30L82.60 40.30L82.60 15.00L82.60 15.00M117.05 15.00L111.15 11.55L100.85 11.55L100.85 17.20L110.75 17.20L110.75 23.10L100.85 23.10L100.85 28.80L110.75 28.80L110.75 40.30L117.05 40.30L117.05 15.00L117.05 15.00ZM124.55 15.00L130.25 11.55L140.55 11.55L140.55 17.45L130.65 17.45L130.65 23.10L140.55 23.10L140.55 28.95L130.25 28.95L124.55 25.55L124.55 15.00M159 26.55L153.10 23.10L142.80 23.10L142.80 28.95L152.70 28.95L152.70 34.65L143 34.65L143 40.30L153.10 40.30L159 36.90L159 26.55M130.85 31.20L130.85 34.65L140.55 34.65L140.55 40.30L130.40 40.30L124.55 36.90L124.55 31.20L130.85 31.20M159 20.85L159 15.00L153.10 11.55L142.80 11.55L142.80 17.45L152.70 17.45L152.70 20.85L159 20.85ZM167.50 11.55L173.80 11.55L173.80 23.10L183.50 23.10L183.50 28.80L173.80 28.80L173.80 40.30L167.50 40.30L167.50 11.55L167.50 11.55M201.95 11.55L195.65 11.55L195.65 23.10L185.95 23.10L185.95 28.80L195.65 28.80L195.65 40.30L201.95 40.30L201.95 11.55L201.95 11.55ZM226.95 11.55L232.65 11.55L242.95 21.25L242.95 28.80L233.25 19.65L233.25 40.30L226.95 40.30L226.95 11.55L226.95 11.55M261.40 11.55L255.75 11.55L245.40 21.25L245.40 28.80L255.10 19.65L255.10 40.30L261.40 40.30L261.40 11.55L261.40 11.55ZM270.40 15.00L276.10 11.55L286.40 11.55L286.40 17.20L276.70 17.20L276.70 23.10L286.40 23.10L286.40 28.80L276.70 28.80L276.70 40.30L270.40 40.30L270.40 15.00L270.40 15.00M304.85 15.00L298.95 11.55L288.65 11.55L288.65 17.20L298.55 17.20L298.55 23.10L288.65 23.10L288.65 28.80L298.55 28.80L298.55 40.30L304.85 40.30L304.85 15.00L304.85 15.00ZM326.35 30.60L316.00 40.30L310.35 38.50L323.55 25.95L310.35 13.40L316.00 11.55L326.35 21.25L326.35 30.60M331.40 25.95L344.80 38.50L338.95 40.30L328.60 30.60L328.60 21.25L338.95 11.55L344.80 13.40L331.40 25.95Z"/>
	</g>
</g>
</svg>
