<!--
     Copyright (C) 2022 The Project Nyanpasu

     SPDX-License-Identifier: Apache-2.0

     thanks: @ReallySnow
-->

<svg width="420px" height="490px" viewBox="0 0 420 490" version="1.1"
  xmlns="http://www.w3.org/2000/svg" xmlns:xlink="http://www.w3.org/1999/xlink">
  <defs>
    <style><![CDATA[
      #element {
        fill: #000000;
      }
    ]]></style>
  </defs>

  <g id="nyanpasu_logo" fill-rule="nonzero">
    <path
      d="M349.980734,470.820835 C362.906597,470.820835 375.380055,471.040616 387.808272,470.736801 C394.678368,470.562269 398.898662,465.526692 400.333433,457.394784 C402.20122,446.832354 400.417451,436.780592 395.809381,427.284747 C390.832924,417.03906 385.255414,407.090725 380.233716,396.903216 C360.528238,356.825451 356.463054,315.532425 371.896535,273.134028 C376.646789,260.076434 384.111475,248.479739 394.781775,239.255389 C400.869857,233.993566 405.684741,233.870747 409.911498,238.718864 C414.138255,243.56698 413.285148,248.415097 407.500824,253.663991 C390.535629,269.081003 384.285974,289.34613 382.230762,311.27901 C379.516331,340.367711 385.669042,367.633519 399.499715,393.373787 C407.100123,407.523823 416.070671,421.169656 418.88851,437.433471 C420.614112,447.317165 420.484854,457.129754 417.402035,466.787202 C412.613003,481.764651 401.244707,490.012913 385.513931,490 C273.567341,489.896558 161.622905,489.814679 49.6806226,489.754347 C42.5713979,489.754347 35.4621733,489.993521 28.605003,487.73753 C11.4136053,482.081394 -0.0322464095,467.259085 0,448.855634 C0.103475152,390.930336 0.374918274,333.011502 3.10227536,275.124988 C4.89250738,237.057576 7.30964376,199.054805 11.2067914,161.148996 C16.3771366,110.612228 23.6608604,60.405131 34.5315112,10.7604159 C35.0024707,8.67513302 35.7547542,6.66358964 36.7676855,4.78107191 C38.5191399,1.50374502 41.1689418,-0.513071536 45.1694964,0.113951558 C49.170051,0.740974653 49.3768648,4.11526388 49.9326769,6.9530282 C53.9913979,27.6706469 60.3056819,47.7612426 66.8590945,67.7742684 C68.9853989,74.238424 70.1875042,82.4543658 74.7891114,86.326395 C79.26146,90.0949977 87.6051045,87.3541957 94.2425352,87.3735882 C154.302557,87.5028713 214.369043,86.8176708 274.422602,88.3755323 C279.256875,88.4983513 281.615845,87.0827012 283.509484,82.6353621 C293.203881,59.8750702 301.967616,36.8044988 308.495177,12.925908 C309.309506,9.94593225 309.942874,6.778496 313.710763,6.46175237 C317.129653,6.17732953 319.346439,8.49796139 320.858765,11.1547293 C321.981523,13.2263513 322.777248,15.4591645 323.217735,17.7740247 C332.832735,64.3247661 340.022746,111.343788 344.758685,158.640904 C354.220417,251.724745 355.745669,345.112401 356.152834,438.538842 C356.152834,444.123872 356.217463,449.695975 355.370819,455.274541 C354.569415,460.646254 352.048872,465.38448 349.980734,470.820835 Z"
      id="element" fill-rule="evenodd"></path>
    <path
      d="M314.373914,51.8580359 C319.16418,79.1645649 322.474053,106.509891 325.189183,133.926344 C335.474355,237.585109 337,341.580114 337,445.633314 C337,462.193111 328.052999,470.974135 311.283837,470.980602 C222.356854,471.006466 133.429871,471.006466 44.5028879,470.980602 C27.8242301,470.980602 18.9741981,462.050856 19,445.491059 C19.0776317,397.460537 19.1422776,349.423548 20.816608,301.425356 C22.7559868,246.3726 25.665055,191.384506 31.4637977,136.538667 C34.2500385,110.221458 37.8831415,84.0335719 41.044329,57.7745583 C41.348165,55.2398296 42.0398768,52.7503639 42.8026991,49 C47.5541772,66.3034032 53.702008,81.848015 58.6926762,97.7676631 C60.6902363,104.123883 64.0001095,106.632747 70.7620769,106.632747 C141.816607,106.58964 212.868982,106.72974 283.919202,107.053047 C290.11875,107.053047 293.415694,104.679972 295.555475,99.1643504 C301.63866,83.3804912 308.652746,67.9328716 314.373914,51.8580359 Z"
      id="bg" fill="#ffffff" fill-rule="evenodd"></path>
    <path
      d="M119.999315,204.118735 C120.083729,213.985193 112.350174,222.057169 102.850433,222 C94.0584657,221.961379 86.9547636,214.451375 87,205.249067 C87.0456702,196.148935 94.5909186,188.268541 103.493273,188.006712 C112.395627,187.744884 119.921396,195.178255 119.999315,204.118735 Z"
      id="element" fill-rule="evenodd"></path>
    <path
      d="M236,204.861743 C236,195.671258 243.035135,188.142475 251.816026,188.001869 C261.124552,187.861264 268.993481,195.671258 269,205.104607 C269.006509,214.537955 262.179823,221.772746 253.255623,221.996436 C244.16206,222.194562 236.026056,214.103357 236,204.861743 Z"
      id="element" fill-rule="evenodd"></path>
    <path
      d="M190.493614,267.920884 C185.555364,268.142338 181.468093,262.430145 177.097162,262.137045 C172.945422,261.850458 168.716321,267.914371 162.875519,267.999044 C153.295574,268.096744 144.921179,260.691085 144.089542,251.064378 C143.851011,248.296212 143.844564,245.541072 147.312943,245.059085 C150.362279,244.622692 151.0263,246.902358 151.638746,249.481638 C153.327808,256.646305 157.286143,260.411011 162.701456,259.935538 C168.890385,259.394931 172.371657,255.649765 173.087252,249.468612 C173.383805,247.045652 174.234782,245.104678 176.819949,245.026518 C179.869286,244.935332 180.481732,247.208485 180.855647,249.813818 C181.751752,255.988458 185.426428,259.870405 191.570229,259.889945 C197.71403,259.909485 201.433834,255.981945 202.342833,249.872438 C202.774769,246.954465 203.516151,244.433805 206.907168,245.111192 C210.130569,245.762525 210.195037,248.634905 209.872697,251.383532 C208.750953,260.769245 200.621538,268.044638 190.493614,267.920884 Z"
      id="element" fill-rule="evenodd"></path>
  </g>
</svg>