<svg t="1729726044557" class="icon" viewBox="0 0 1024 1024" version="1.1"
    xmlns="http://www.w3.org/2000/svg" p-id="18466" xmlns:xlink="http://www.w3.org/1999/xlink"
    width="200" height="200">
    <path
        d="M143.140571 512l-0.073142-226.377143L309.248 70.582857h571.757714L880.932571 512H143.140571zM950.857143 512V70.656a70.948571 70.948571 0 0 0-20.48-49.956571 69.485714 69.485714 0 0 0-49.371429-20.699429H291.766857a34.889143 34.889143 0 0 0-27.574857 13.604571L80.457143 251.977143A35.547429 35.547429 0 0 0 73.142857 273.627429V512m209.92-264.704L143.067429 247.222857v70.656H283.062857a70.217143 70.217143 0 0 0 69.924572-70.509714V70.656H283.062857V247.222857z"
        p-id="18467"></path>
    <path
        d="M1005.714286 512a18.285714 18.285714 0 0 1 18.285714 18.285714v475.428572a18.285714 18.285714 0 0 1-18.285714 18.285714H18.285714a18.285714 18.285714 0 0 1-18.285714-18.285714v-475.428572A18.285714 18.285714 0 0 1 18.285714 512zM145.92 652.214857H73.142857l111.030857 171.008v109.787429h63.853715v-111.030857l112.347428-169.764572H286.281143L234.057143 746.642286a158.939429 158.939429 0 0 1-5.12 8.923428 656.091429 656.091429 0 0 1-10.24 17.92l-3.803429-7.68a149.284571 149.284571 0 0 0-12.726857-20.48l-56.173714-93.110857z m347.282286 0H398.774857v280.868572h59.977143v-154.550858c0-10.971429-0.438857-29.257143-1.243429-54.857142a257.024 257.024 0 0 1-1.316571-21.723429h1.316571c4.242286 18.724571 7.606857 33.206857 10.24 43.446857l52.297143 187.611429h53.613715l52.297142-182.491429a324.022857 324.022857 0 0 0 10.24-47.250286h1.243429c-1.682286 22.966857-2.56 43.812571-2.56 62.537143v167.204572h61.293714v-280.868572H600.429714l-49.737143 183.881143c-1.755429 2.56-2.56 9.362286-2.56 20.406857a54.857143 54.857143 0 0 0-1.316571 10.24 706.048 706.048 0 0 0-3.803429-30.72l-49.737142-183.734857z m313.417143 0h-63.853715v280.868572H950.857143v-49.883429h-144.237714V652.214857z"
        p-id="18468"></path>
</svg>