<svg t="1716297517163" class="icon" viewBox="0 0 1024 1024" version="1.1"
    xmlns="http://www.w3.org/2000/svg" p-id="10899" xmlns:xlink="http://www.w3.org/1999/xlink"
    width="200" height="200">
    <path
        d="M997.8 237.64L788 27.89a89.41 89.41 0 0 0-63.3-26.2H354.18c-75.08 0-136.12 61.08-136.12 136.12v333.44h59.55V137.81a76.66 76.66 0 0 1 76.57-76.57h323.4v146.58a140.32 140.32 0 0 0 140.29 140.29h146.58V885.9a76.79 76.79 0 0 1-76.57 76.56h-533.7a76.66 76.66 0 0 1-76.57-76.56v-163h-59.55v163c0 75 61 136.11 136.12 136.11h533.7A136.13 136.13 0 0 0 1024 885.9v-585a89.64 89.64 0 0 0-26.2-63.26z m-179.93 50.92a80.75 80.75 0 0 1-80.74-80.74V61.24l227.32 227.32z"
        p-id="10900"></path>
    <path d="M299.75 542.01l-19.71 51.29h39.04l-18.95-51.29h-0.38z" p-id="10901"></path>
    <path
        d="M767.57 425.24H38.28A38.28 38.28 0 0 0 0 463.53v229.69a38.28 38.28 0 0 0 38.28 38.29h729.29a38.28 38.28 0 0 0 38.28-38.29V463.53a38.28 38.28 0 0 0-38.28-38.29zM143.94 597.13v56.65h-34.83v-56.65L50.93 503h40.76l34.64 58.37h0.39L159.63 503h40.77z m197.72 56.65l-11.1-29.86h-62.2l-11.48 29.86h-36.55L280.61 503h39l58.57 150.81z m253 0h-34.79v-96.84h-0.38l-39 96.84h-33.92l-39.43-96.84h-0.38v96.84h-34.64V503h49l42.11 104.88h0.38L545.71 503h49z m160.23 0h-112.5V503H677v120.16h77.9z"
        p-id="10902"></path>
</svg>