<svg width="156" height="28" viewBox="0 0 156 28" fill="none" xmlns="http://www.w3.org/2000/svg">
<path fill-rule="evenodd" clip-rule="evenodd" d="M8.26868 2.79006C8.16515 2.81274 8.01934 3.0051 7.92981 3.23729C7.83356 3.48684 7.76209 3.81794 7.50435 5.208C7.47152 5.3851 7.41482 5.6812 7.37828 5.866C7.31689 6.17659 7.25578 6.50223 7.15239 7.07C7.12992 7.1932 7.09891 7.357 7.08344 7.434C7.05278 7.58625 7.05488 7.57393 6.89052 8.554C6.76725 9.28914 6.71629 9.60505 6.64888 10.052C6.62452 10.2137 6.58686 10.4594 6.56523 10.598C6.48543 11.1088 6.43727 11.5089 6.4526 11.5338C6.46128 11.5478 6.45561 11.5634 6.44 11.5686C6.42439 11.5738 6.77964 11.5743 7.22939 11.5697C8.1564 11.5604 8.10047 11.5765 8.14506 11.3063C8.59873 8.55953 12.5534 8.5106 13.0632 11.2455C13.0887 11.3821 13.1224 11.5097 13.1382 11.529C13.183 11.5837 16.0802 11.5796 16.1257 11.5248C16.1435 11.5032 16.1709 11.4056 16.1864 11.3078C16.6272 8.53643 20.6667 8.52649 21.1134 11.2957C21.1592 11.5795 21.1298 11.5676 21.7673 11.5582C22.0691 11.5536 22.3203 11.5563 22.3254 11.564C22.3306 11.5717 22.3303 11.5606 22.3249 11.5394C22.3194 11.5181 22.2963 11.3827 22.2735 11.2384C22.2507 11.0941 22.2131 10.8594 22.19 10.717C22.1313 10.3554 22.0718 9.98641 22.0376 9.772C22.0216 9.6719 21.9958 9.5207 21.9803 9.436C21.9647 9.3513 21.8696 8.778 21.7689 8.162C21.2995 5.28815 21.2806 5.19092 20.8701 3.528C20.7173 2.90871 20.6235 2.77088 20.356 2.77277C20.1549 2.77417 19.8137 3.03765 19.5594 3.388C19.4256 3.57224 18.3096 5.53763 17.9872 6.15671C17.7794 6.55578 17.7553 6.56523 17.192 6.46814C15.313 6.14418 13.6118 6.1446 11.9335 6.4694C11.4008 6.57251 11.4791 6.62172 11.0305 5.90142C9.37153 3.23729 8.85962 2.66063 8.26868 2.79006ZM10.3094 9.43649C8.63555 9.66826 7.77581 11.6143 8.74636 12.9744C9.83801 14.5041 12.1593 14.1592 12.7726 12.376C13.3 10.843 11.933 9.21172 10.3094 9.43649ZM18.3436 9.4367C16.5046 9.6908 15.7311 11.9504 17.0349 13.2595C18.5079 14.7384 20.9912 13.6692 20.9082 11.592C20.8549 10.2566 19.6624 9.25449 18.3436 9.4367ZM11.032 10.7688C11.4164 10.9439 11.644 11.334 11.6131 11.7652C11.5412 12.7697 10.1557 13.0355 9.71005 12.1301C9.29313 11.2832 10.1727 10.3775 11.032 10.7688ZM19.1235 10.7518C19.5852 10.9848 19.8301 11.5611 19.6591 12.012C19.266 13.0484 17.7516 12.8737 17.6494 11.7801C17.5787 11.0227 18.4526 10.4131 19.1235 10.7518ZM6.384 11.8166C6.384 11.8665 6.36573 12.0285 6.34347 12.1766C6.29531 12.4966 6.12969 13.7319 6.00516 14.7C5.98234 14.8771 5.95084 15.1102 5.93502 15.218C5.91927 15.3258 5.89337 15.5274 5.87748 15.666C5.86159 15.8046 5.83016 16.0692 5.80755 16.254C5.73202 16.8718 5.61204 17.8965 5.55828 18.382C5.52069 18.7215 5.49724 18.9267 5.38909 19.866C5.33757 20.3131 5.27835 20.8517 5.21976 21.406C5.1954 21.637 5.16523 21.9205 5.15291 22.036C5.14052 22.1515 5.11441 22.4161 5.09488 22.624C5.07528 22.8319 5.05183 23.0106 5.04266 23.0212C5.01907 23.0483 4.17466 22.8923 3.78196 22.7882C2.42676 22.4288 1.82672 21.1366 2.49375 20.0138C2.66182 19.7308 2.90605 19.5011 3.48565 19.0807C4.06567 18.6599 4.14834 18.5673 4.1657 18.3191C4.19783 17.8595 3.54739 17.6449 2.83857 17.8813C-0.428892 18.971 -0.272582 23.6059 3.06642 24.6366C3.53787 24.7821 4.0635 24.8667 4.7432 24.9065C5.0687 24.9255 5.26414 24.9579 5.75267 25.0739C6.21754 25.1844 7.01505 25.2297 10.92 25.3679C11.9507 25.4043 17.8634 25.4045 18.7432 25.3681C19.1143 25.3527 19.733 25.3274 20.118 25.3118C21.1996 25.268 22.8591 25.1537 23.324 25.0911C24.0138 24.9981 24.0722 24.8476 23.9287 23.534C23.9051 23.3184 23.8664 22.953 23.8425 22.722C23.8186 22.491 23.7796 22.1193 23.7559 21.896C23.7321 21.6727 23.6949 21.3199 23.6732 21.112C23.5915 20.3275 23.4955 19.4712 23.4235 18.886C23.3173 18.0222 23.2847 17.7819 23.1286 16.716C23.0801 16.3849 23.0288 16.0321 23.0147 15.932C23.0005 15.8319 22.9762 15.6744 22.9606 15.582C22.9449 15.4896 22.8686 14.9982 22.7911 14.49C22.7135 13.9818 22.6187 13.3707 22.5805 13.132C22.5422 12.8933 22.4927 12.5846 22.4705 12.446C22.4482 12.3074 22.4142 12.0898 22.3947 11.9624C22.3656 11.7708 22.352 11.7344 22.3167 11.7519C22.2932 11.7636 22.0346 11.7795 21.742 11.7875C21.1309 11.8042 21.1511 11.7974 21.1267 11.991C20.9628 13.2877 19.8125 14.236 18.4961 14.1595C17.3286 14.0917 16.3472 13.1925 16.1842 12.0414C16.1456 11.7687 16.2636 11.788 14.63 11.788C12.9992 11.788 13.1202 11.768 13.077 12.0445C12.6447 14.8032 8.64892 14.863 8.15913 12.1182C8.09788 11.7753 8.17509 11.804 7.27167 11.788C6.83732 11.7803 6.45995 11.7632 6.433 11.75C6.39149 11.7297 6.384 11.7398 6.384 11.8166ZM14.771 13.8342C14.9973 14.0659 15.0776 14.095 15.4313 14.0735C15.7665 14.0531 15.8092 14.075 15.7017 14.2116C15.5329 14.4262 15.1433 14.409 14.7545 14.1697C14.5818 14.0635 14.5492 14.0634 14.392 14.1683C14.0126 14.4215 13.5493 14.4295 13.412 14.1853C13.3577 14.0887 13.4088 14.0465 13.552 14.0701C13.975 14.1395 14.1093 14.1015 14.343 13.8463C14.5274 13.645 14.5846 13.6434 14.771 13.8342Z" fill="#40416F"/>
<path fill-rule="evenodd" clip-rule="evenodd" d="M10.36 9.21354C9.24139 9.3198 8.33797 10.1705 8.14638 11.298C8.09724 11.5874 8.16878 11.5667 7.25052 11.5578C6.80763 11.5535 6.45112 11.5594 6.45826 11.571C6.46547 11.5825 6.45952 11.592 6.44517 11.592C6.39736 11.592 6.41787 11.7332 6.46967 11.7609C6.49872 11.7764 6.84109 11.788 7.27278 11.788C8.15856 11.788 8.09661 11.7649 8.15933 12.1182C8.64653 14.8628 12.6447 14.8029 13.077 12.0445C13.1202 11.768 12.9992 11.788 14.63 11.788C16.2636 11.788 16.1456 11.7687 16.1842 12.0414C16.3472 13.1925 17.3286 14.0917 18.4961 14.1595C19.8127 14.236 20.9628 13.2878 21.1268 11.9906C21.1518 11.7921 21.1641 11.788 21.742 11.788C22.3292 11.788 22.3726 11.7711 22.3196 11.564C22.3177 11.5563 22.0691 11.5536 21.7673 11.5582C21.1298 11.5676 21.1592 11.5795 21.1134 11.2957C20.6667 8.52649 16.6272 8.53643 16.1864 11.3078C16.1709 11.4056 16.1435 11.5032 16.1257 11.5248C16.0802 11.5796 13.183 11.5837 13.1382 11.529C13.1224 11.5097 13.0887 11.3821 13.0632 11.2455C12.8236 9.96016 11.6654 9.0895 10.36 9.21354ZM11.192 9.49354C12.8716 9.92313 13.4424 12.0423 12.2104 13.2745C10.9483 14.537 8.81243 13.9273 8.39607 12.1859C8.00575 10.5533 9.544 9.07207 11.192 9.49354ZM19.2261 9.49305C20.9357 9.93027 21.4943 12.0972 20.2114 13.3155C18.7582 14.6955 16.3932 13.6794 16.3953 11.676C16.3969 10.1851 17.7754 9.12205 19.2261 9.49305ZM10.3979 10.6955C9.76492 10.8294 9.42185 11.5447 9.71004 12.1301C10.1557 13.0355 11.5412 12.7697 11.6131 11.7652C11.6614 11.0912 11.0541 10.5568 10.3979 10.6955ZM18.3464 10.7232C17.7745 10.9289 17.4918 11.5786 17.7386 12.1197C18.0484 12.7995 19.0115 12.9144 19.4741 12.3268C20.1172 11.5098 19.3182 10.3734 18.3464 10.7232ZM14.343 13.8463C14.1093 14.1015 13.975 14.1395 13.552 14.0701C13.4088 14.0466 13.3577 14.0887 13.412 14.1853C13.5493 14.4295 14.0126 14.4215 14.392 14.1683C14.5492 14.0634 14.5818 14.0635 14.7545 14.1697C15.1433 14.409 15.5329 14.4262 15.7017 14.2116C15.8092 14.075 15.7665 14.0531 15.4313 14.0735C15.0776 14.095 14.9973 14.0659 14.771 13.8342C14.5846 13.6434 14.5274 13.645 14.343 13.8463Z" fill="white"/>
<path d="M47.6 6.44C49.28 6.44 50.68 6.88 51.76 7.76C52.8 8.6 53.42 9.76 53.64 11.2H51.36C51.12 10.26 50.68 9.58 50.02 9.14C49.38 8.7 48.56 8.5 47.56 8.5C46.06 8.5 44.94 9 44.18 10.04C43.48 10.96 43.14 12.24 43.14 13.88C43.14 15.56 43.48 16.86 44.16 17.76C44.9 18.72 46.06 19.22 47.62 19.22C48.64 19.22 49.48 18.96 50.12 18.48C50.8 17.94 51.28 17.12 51.56 16.04H53.84C53.52 17.72 52.78 19.02 51.6 19.96C50.5 20.84 49.18 21.28 47.64 21.28C45.26 21.28 43.48 20.52 42.32 19.04C41.3 17.76 40.8 16.04 40.8 13.88C40.8 11.76 41.32 10.02 42.38 8.7C43.58 7.18 45.32 6.44 47.6 6.44ZM56.0484 6.44H58.3284V21H56.0484V6.44ZM65.6266 10.38C67.1466 10.38 68.2866 10.76 69.0066 11.52C69.6466 12.18 69.9666 13.14 69.9666 14.4V21H67.8466V19.64C67.4466 20.16 66.9466 20.54 66.3666 20.82C65.7066 21.12 64.9266 21.28 64.0266 21.28C62.9466 21.28 62.1066 21 61.4866 20.46C60.8466 19.9 60.5266 19.2 60.5266 18.34C60.5266 17.18 60.9666 16.28 61.8866 15.66C62.7266 15.06 63.9066 14.74 65.4266 14.7L67.6866 14.64V14.24C67.6866 12.88 66.9466 12.22 65.4666 12.22C64.8266 12.22 64.3266 12.32 63.9466 12.56C63.5066 12.82 63.2066 13.22 63.0866 13.76L60.8266 13.58C61.0466 12.44 61.6066 11.6 62.5066 11.08C63.2666 10.6 64.3066 10.38 65.6266 10.38ZM67.6866 16.28L65.5866 16.34C63.7666 16.38 62.8666 17.02 62.8666 18.26C62.8666 18.62 63.0066 18.92 63.3266 19.16C63.6466 19.4 64.0466 19.54 64.5466 19.54C65.4266 19.54 66.1666 19.28 66.7666 18.78C67.3666 18.26 67.6866 17.6 67.6866 16.8V16.28ZM76.2719 10.38C78.9919 10.38 80.4919 11.46 80.7319 13.66H78.5119C78.3519 13.14 78.1119 12.76 77.7919 12.56C77.4519 12.34 76.9319 12.24 76.2319 12.24C75.6319 12.24 75.1719 12.32 74.8719 12.5C74.5119 12.68 74.3519 12.96 74.3519 13.36C74.3519 13.68 74.6119 13.98 75.1719 14.22C75.5119 14.36 76.1919 14.56 77.2319 14.82C78.3919 15.1 79.2719 15.42 79.8319 15.8C80.6519 16.32 81.0719 17.06 81.0719 17.98C81.0719 20.18 79.5119 21.28 76.4119 21.28C73.5319 21.28 71.9919 20.06 71.7719 17.64H73.9919C74.1119 18.3 74.3519 18.76 74.6919 19.04C75.0319 19.28 75.5719 19.42 76.3319 19.42C77.9319 19.42 78.7319 18.98 78.7319 18.14C78.7319 17.66 78.4319 17.28 77.8319 17C77.5119 16.84 76.8319 16.66 75.7919 16.42C74.5719 16.14 73.7119 15.84 73.2119 15.52C72.4119 15.02 72.0119 14.32 72.0119 13.42C72.0119 12.46 72.3919 11.72 73.1919 11.2C73.9719 10.64 74.9919 10.38 76.2719 10.38ZM82.8797 6.44H85.1597V12.04C85.5397 11.46 86.0197 11.04 86.5797 10.76C87.0797 10.5 87.6597 10.38 88.3197 10.38C89.5797 10.38 90.5197 10.74 91.1397 11.48C91.7197 12.18 92.0197 13.22 92.0197 14.6V21H89.7397V15C89.7397 14.12 89.5597 13.44 89.2197 12.98C88.8197 12.48 88.2397 12.24 87.4597 12.24C86.7397 12.24 86.1797 12.52 85.7797 13.08C85.3597 13.64 85.1597 14.34 85.1597 15.22V21H82.8797V6.44ZM99.9828 6.72H102.523L106.443 18.36H106.503L110.423 6.72H112.963L107.883 21H105.063L99.9828 6.72ZM118.666 10.38C120.366 10.38 121.666 10.94 122.566 12.1C123.386 13.14 123.806 14.6 123.806 16.46H116.066C116.146 17.42 116.406 18.16 116.846 18.66C117.286 19.16 117.926 19.42 118.746 19.42C119.446 19.42 120.006 19.26 120.446 18.94C120.786 18.68 121.086 18.26 121.366 17.68H123.646C123.406 18.64 122.926 19.46 122.206 20.1C121.286 20.88 120.146 21.28 118.766 21.28C117.226 21.28 116.006 20.8 115.106 19.86C114.146 18.88 113.666 17.54 113.666 15.82C113.666 14.28 114.106 13 115.026 11.96C115.906 10.9 117.126 10.38 118.666 10.38ZM118.726 12.24C117.966 12.24 117.386 12.44 116.946 12.88C116.526 13.3 116.246 13.92 116.106 14.74H121.426C121.226 13.06 120.326 12.24 118.726 12.24ZM130.494 10.38C130.994 10.38 131.434 10.46 131.794 10.64V12.92C131.274 12.76 130.794 12.7 130.314 12.7C129.714 12.7 129.174 12.92 128.694 13.4C128.134 13.94 127.874 14.64 127.874 15.52V21H125.614V10.66H127.874V12.14C128.154 11.62 128.474 11.22 128.854 10.94C129.314 10.56 129.854 10.38 130.494 10.38ZM137.395 10.38C138.675 10.38 139.695 10.88 140.455 11.92V10.66H142.735V20.34C142.735 23.6 141.115 25.24 137.875 25.24C136.415 25.24 135.315 24.96 134.555 24.44C133.795 23.88 133.315 23.04 133.115 21.88H135.395C135.515 22.46 135.755 22.86 136.135 23.1C136.495 23.32 137.075 23.44 137.875 23.44C139.595 23.44 140.455 22.52 140.455 20.68V19.16C139.695 20.22 138.675 20.76 137.395 20.76C135.995 20.76 134.855 20.28 133.995 19.36C133.115 18.42 132.695 17.16 132.695 15.6C132.695 14.04 133.115 12.78 133.995 11.82C134.855 10.86 135.995 10.38 137.395 10.38ZM137.755 12.22C136.895 12.22 136.235 12.52 135.755 13.12C135.275 13.7 135.035 14.52 135.035 15.6C135.035 16.58 135.215 17.34 135.595 17.9C136.035 18.56 136.735 18.9 137.735 18.9C138.615 18.9 139.295 18.6 139.775 18.04C140.235 17.44 140.475 16.64 140.475 15.6C140.475 14.54 140.235 13.72 139.775 13.12C139.295 12.52 138.615 12.22 137.755 12.22ZM149.526 10.38C151.226 10.38 152.526 10.94 153.426 12.1C154.246 13.14 154.666 14.6 154.666 16.46H146.926C147.006 17.42 147.266 18.16 147.706 18.66C148.146 19.16 148.786 19.42 149.606 19.42C150.306 19.42 150.866 19.26 151.306 18.94C151.646 18.68 151.946 18.26 152.226 17.68H154.506C154.266 18.64 153.786 19.46 153.066 20.1C152.146 20.88 151.006 21.28 149.626 21.28C148.086 21.28 146.866 20.8 145.966 19.86C145.006 18.88 144.526 17.54 144.526 15.82C144.526 14.28 144.966 13 145.886 11.96C146.766 10.9 147.986 10.38 149.526 10.38ZM149.586 12.24C148.826 12.24 148.246 12.44 147.806 12.88C147.386 13.3 147.106 13.92 146.966 14.74H152.286C152.086 13.06 151.186 12.24 149.586 12.24Z" fill="black" fill-opacity="0.88"/>
</svg>
