<?xml version="1.0" encoding="utf-8"?>
<svg viewBox="0 0 1024 1024" xmlns="http://www.w3.org/2000/svg">
    <path
        d="M 64.002 831.066 L 64.002 649.735 L 128 649.735 L 128 767.067 L 896 767.067 L 896 649.735 L 959.999 649.735 L 959.999 831.066 L 64.001 831.066 L 64.002 831.066 Z M 414.031 680.257 L 414.031 640.708 L 410.421 640.708 C 400.903 656.571 388.39 668.729 372.882 677.18 C 357.375 685.631 339.529 689.857 319.344 689.857 C 286.688 689.857 260.883 681.2 241.929 663.887 C 222.975 646.575 213.499 623.095 213.499 593.447 C 213.499 563.58 224.575 539.293 246.729 520.585 C 268.883 501.878 297.546 492.524 332.719 492.524 C 348.254 492.524 363.023 493.905 377.026 496.667 C 391.029 499.43 403.146 503.656 413.375 509.345 L 413.375 490.309 C 413.375 467.006 406.729 448.982 393.437 436.236 C 380.144 423.49 361.299 417.117 336.902 417.117 C 321.969 417.117 307.993 419.976 294.975 425.692 C 281.956 431.408 270.004 439.9 259.118 451.169 L 223.099 422.37 C 237.43 405.631 253.95 393.104 272.657 384.79 C 291.365 376.476 312.862 372.318 337.149 372.318 C 379.05 372.318 410.708 382.671 432.123 403.375 C 453.538 424.079 464.245 454.479 464.245 494.575 L 464.245 680.257 L 414.031 680.257 Z M 341.99 534.041 C 317.867 534.041 299.077 539.238 285.62 549.631 C 272.164 560.024 265.436 574.493 265.436 593.036 C 265.436 609.174 270.974 622.097 282.051 631.806 C 293.128 641.516 307.61 646.371 325.498 646.371 C 350.441 646.371 371.323 637.277 388.144 619.089 C 404.965 600.9 413.375 578.377 413.375 551.518 C 403.693 545.83 392.315 541.495 379.242 538.514 C 366.168 535.532 353.751 534.041 341.99 534.041 Z M 541.375 680.667 L 541.375 252.934 L 593.558 252.934 L 593.558 384.545 L 590.358 427.211 L 593.148 427.211 C 598.564 418.733 608.943 408.435 624.287 396.319 C 639.631 384.203 660.977 378.145 688.327 378.145 C 729.735 378.145 762.638 393.27 787.035 423.519 C 811.431 453.769 823.629 491.047 823.629 535.355 C 823.629 579.116 811.609 615.874 787.568 645.631 C 763.527 675.389 730.31 690.267 687.917 690.267 C 662.044 690.267 641.258 684.688 625.558 673.529 C 609.859 662.37 599.056 651.594 593.148 641.201 L 590.358 641.201 L 590.358 680.667 L 541.375 680.667 Z M 681.6 426.801 C 653.702 426.801 631.521 437.563 615.056 459.087 C 598.591 480.613 590.358 505.816 590.358 534.698 C 590.358 564.018 598.591 589.263 615.056 610.433 C 631.521 631.602 653.702 642.186 681.6 642.186 C 709.497 642.186 731.309 631.807 747.036 611.048 C 762.762 590.289 770.625 564.839 770.625 534.698 C 770.625 504.558 762.762 479.04 747.036 458.145 C 731.309 437.249 709.497 426.801 681.6 426.801 Z"
        p-id="12920" transform="matrix(1, 0, 0, 1, 0, 1.4210854715202004e-14)" />
</svg>