<?xml version="1.0" encoding="utf-8"?>
<svg viewBox="0 0 1024 1024" xmlns="http://www.w3.org/2000/svg">
    <path
        d="M 175.755 768.851 L 334.113 343.826 L 394.912 343.826 L 554.501 768.851 L 494.851 768.851 L 453.989 653.897 L 275.036 653.897 L 234.583 768.851 L 175.755 768.851 Z M 293.332 604.339 L 436.102 604.339 L 366.441 406.757 L 362.994 406.757 L 293.332 604.339 Z M 703.344 780.174 C 670.415 780.174 644.541 771.518 625.724 754.205 C 606.907 736.892 597.499 713.412 597.499 683.764 C 597.499 653.898 608.575 629.61 630.729 610.902 C 652.882 592.195 681.682 582.842 717.129 582.842 C 732.663 582.842 747.433 584.223 761.437 586.985 C 775.44 589.747 787.419 593.973 797.375 599.662 L 797.375 580.626 C 797.375 557.323 790.66 539.299 777.231 526.554 C 763.802 513.808 744.753 507.435 720.082 507.435 C 705.423 507.435 691.652 510.293 678.769 516.01 C 665.887 521.726 654.004 530.218 643.118 541.486 L 607.099 512.687 C 621.43 495.948 637.95 483.422 656.657 475.107 C 675.365 466.793 696.726 462.636 720.739 462.636 C 762.639 462.636 794.365 472.988 815.918 493.693 C 837.469 514.397 848.245 544.797 848.245 584.893 L 848.245 770.574 L 798.031 770.574 L 798.031 731.025 L 794.421 731.025 C 784.903 746.889 772.39 759.046 756.882 767.498 C 741.375 775.948 723.529 780.174 703.344 780.174 Z M 709.087 736.688 C 734.031 736.688 754.981 727.594 771.939 709.406 C 788.896 691.218 797.375 668.694 797.375 641.836 C 787.693 636.147 776.315 631.812 763.242 628.831 C 750.168 625.849 737.751 624.358 725.99 624.358 C 701.594 624.358 682.735 629.555 669.415 639.949 C 656.096 650.342 649.436 664.947 649.436 683.764 C 649.436 699.628 654.906 712.414 665.846 722.124 C 676.786 731.833 691.2 736.688 709.087 736.688 Z"
        p-id="11663" transform="matrix(1, 0, 0, 1, 0, 3.552713678800501e-15)" />
</svg>