<svg width="36" height="36" viewBox="0 0 36 36" fill="none" xmlns="http://www.w3.org/2000/svg">
<rect width="36" height="36" rx="18" fill="url(#paint0_linear_290_83)"/>
<path d="M26.1791 19.6042C25.8714 21.1676 25.1224 22.6103 24.0208 23.7615C22.9191 24.9128 21.5109 25.7246 19.9625 26.1008C20.3875 25.5992 20.7558 24.9492 21.0616 24.2117C21.3658 23.4783 21.62 22.6275 21.8083 21.695C23.2058 21.335 24.4716 20.7817 25.5333 20.0742C25.7566 19.925 25.9725 19.7683 26.1791 19.6042ZM9.82082 19.6042C10.0275 19.7683 10.2433 19.925 10.4666 20.0742C11.5275 20.7817 12.7933 21.335 14.1916 21.695C14.3791 22.6275 14.6333 23.4783 14.9383 24.2117C15.2433 24.9483 15.6116 25.5992 16.0366 26.1008C14.4884 25.7244 13.0803 24.9126 11.9788 23.7613C10.8773 22.6101 10.1285 21.1675 9.82082 19.6042ZM20.0225 22.0375C19.8927 22.5611 19.7254 23.0747 19.5216 23.5742C19.2325 24.2725 18.9141 24.7867 18.6125 25.1125C18.3041 25.4458 18.0925 25.5 18 25.5C17.9075 25.5 17.6966 25.4458 17.3875 25.1125C17.0858 24.7875 16.7675 24.2725 16.4783 23.5742C16.2746 23.0747 16.1072 22.5611 15.9775 22.0375C16.6341 22.1225 17.3108 22.1667 18 22.1667C18.6762 22.1671 19.3518 22.1239 20.0225 22.0375ZM20.4691 16.9408C20.5344 18.0629 20.4947 19.1886 20.3508 20.3033C19.6033 20.4317 18.815 20.5 18 20.5C17.2119 20.5009 16.4253 20.4351 15.6483 20.3033C15.5023 19.1888 15.463 18.0629 15.5308 16.9408C16.3191 17.0883 17.1475 17.1667 18 17.1667C18.8282 17.1676 19.6548 17.092 20.4691 16.9408ZM25.555 14.4792C25.9383 15.3008 26.1925 16.1958 26.2883 17.1367C25.8708 17.6975 25.3075 18.2217 24.6083 18.6867C23.8833 19.17 23.0283 19.5783 22.0758 19.8842C22.1845 18.7637 22.1962 17.6359 22.1108 16.5133C22.8976 16.2518 23.6486 15.8932 24.3466 15.4458C24.7812 15.1654 25.186 14.8416 25.555 14.4792ZM10.445 14.4792C10.8033 14.835 11.2116 15.1583 11.6533 15.4458C12.3512 15.8934 13.1023 16.252 13.8891 16.5133C13.804 17.6359 13.8154 18.7636 13.9233 19.8842C12.9708 19.5783 12.1158 19.1708 11.3908 18.6875C10.6925 18.2217 10.1291 17.6975 9.71082 17.1367C9.80748 16.195 10.0608 15.3008 10.4441 14.4783L10.445 14.4792ZM18 10.5C18.0916 10.5 18.3033 10.555 18.6125 10.8883C18.9141 11.2133 19.2325 11.7283 19.5216 12.4267C19.8466 13.2125 20.1166 14.1833 20.29 15.2775C19.5716 15.4217 18.8025 15.5 18 15.5C17.2309 15.5015 16.4636 15.4269 15.7091 15.2775C15.8825 14.1833 16.1525 13.2125 16.4783 12.4275C16.7675 11.7283 17.0858 11.2142 17.3866 10.8883C17.6966 10.555 17.9075 10.5 18 10.5ZM19.9625 9.89917C21.8406 10.3553 23.5019 11.4496 24.6625 12.995C24.3075 13.4034 23.8951 13.7582 23.4383 14.0483C22.9554 14.3584 22.4408 14.6162 21.9033 14.8175C21.7108 13.6833 21.42 12.655 21.0616 11.7892C20.7558 11.0517 20.3883 10.4008 19.9625 9.89917ZM16.0375 9.89917C15.6125 10.4008 15.2441 11.0517 14.9383 11.7892C14.58 12.6558 14.2883 13.6833 14.0966 14.8175C13.5592 14.6162 13.0446 14.3584 12.5616 14.0483C12.1046 13.7583 11.6919 13.4035 11.3366 12.995C12.4974 11.4494 14.1591 10.3551 16.0375 9.89917Z" fill="white"/>
<defs>
<linearGradient id="paint0_linear_290_83" x1="31" y1="27.5" x2="6.5" y2="7" gradientUnits="userSpaceOnUse">
<stop stop-color="#009038"/>
<stop offset="1" stop-color="#1CA350"/>
</linearGradient>
</defs>
</svg>
