<svg width="36" height="36" viewBox="0 0 36 36" fill="none" xmlns="http://www.w3.org/2000/svg">
<rect width="36" height="36" rx="18" fill="url(#paint0_linear_971_118)"/>
<path d="M17.9917 9.66675C13.3917 9.66675 9.66669 13.4001 9.66669 18.0001C9.66669 22.6001 13.3917 26.3334 17.9917 26.3334C22.6 26.3334 26.3334 22.6001 26.3334 18.0001C26.3334 13.4001 22.6 9.66675 17.9917 9.66675ZM23.7667 14.6667H21.3084C21.0417 13.6251 20.6584 12.6251 20.1584 11.7001C21.6917 12.2251 22.9667 13.2917 23.7667 14.6667ZM18 11.3667C18.6917 12.3667 19.2334 13.4751 19.5917 14.6667H16.4084C16.7667 13.4751 17.3084 12.3667 18 11.3667ZM11.55 19.6667C11.4167 19.1334 11.3334 18.5751 11.3334 18.0001C11.3334 17.4251 11.4167 16.8667 11.55 16.3334H14.3667C14.3 16.8834 14.25 17.4334 14.25 18.0001C14.25 18.5667 14.3 19.1167 14.3667 19.6667H11.55ZM12.2334 21.3334H14.6917C14.9584 22.3751 15.3417 23.3751 15.8417 24.3001C14.3084 23.7751 13.0334 22.7167 12.2334 21.3334ZM14.6917 14.6667H12.2334C13.0334 13.2834 14.3084 12.2251 15.8417 11.7001C15.3417 12.6251 14.9584 13.6251 14.6917 14.6667ZM18 24.6334C17.3084 23.6334 16.7667 22.5251 16.4084 21.3334H19.5917C19.2334 22.5251 18.6917 23.6334 18 24.6334ZM19.95 19.6667H16.05C15.975 19.1167 15.9167 18.5667 15.9167 18.0001C15.9167 17.4334 15.975 16.8751 16.05 16.3334H19.95C20.025 16.8751 20.0834 17.4334 20.0834 18.0001C20.0834 18.5667 20.025 19.1167 19.95 19.6667ZM20.1584 24.3001C20.6584 23.3751 21.0417 22.3751 21.3084 21.3334H23.7667C22.9667 22.7084 21.6917 23.7751 20.1584 24.3001ZM21.6334 19.6667C21.7 19.1167 21.75 18.5667 21.75 18.0001C21.75 17.4334 21.7 16.8834 21.6334 16.3334H24.45C24.5834 16.8667 24.6667 17.4251 24.6667 18.0001C24.6667 18.5751 24.5834 19.1334 24.45 19.6667H21.6334Z" fill="white"/>
<defs>
<linearGradient id="paint0_linear_971_118" x1="31" y1="27.5" x2="6.5" y2="7" gradientUnits="userSpaceOnUse">
<stop stop-color="#009038"/>
<stop offset="1" stop-color="#1CA350"/>
</linearGradient>
</defs>
</svg>
