<svg width="36" height="36" viewBox="0 0 36 36" fill="none" xmlns="http://www.w3.org/2000/svg">
<rect width="36" height="36" rx="18" fill="url(#paint0_linear_289_53)"/>
<rect width="36" height="36" rx="18" fill="url(#paint1_linear_289_53)"/>
<mask id="mask0_289_53" style="mask-type:alpha" maskUnits="userSpaceOnUse" x="8" y="8" width="20" height="20">
<path d="M28 8V28H8V8H28ZM18.4942 27.3817L18.485 27.3833L18.4258 27.4125L18.4092 27.4158L18.3975 27.4125L18.3383 27.3833C18.33 27.38 18.3225 27.3825 18.3183 27.3875L18.315 27.3958L18.3008 27.7525L18.305 27.7692L18.3133 27.78L18.4 27.8417L18.4125 27.845L18.4225 27.8417L18.5092 27.78L18.5192 27.7667L18.5225 27.7525L18.5083 27.3967C18.5067 27.3883 18.5008 27.3825 18.4942 27.3817ZM18.715 27.2875L18.7042 27.2892L18.55 27.3667L18.5417 27.375L18.5392 27.3842L18.5542 27.7425L18.5583 27.7525L18.565 27.7583L18.7325 27.8358C18.7425 27.8392 18.7517 27.8358 18.7567 27.8292L18.76 27.8175L18.7317 27.3058C18.7292 27.2958 18.7233 27.2892 18.715 27.2875ZM18.1192 27.2892C18.1154 27.2874 18.1111 27.287 18.1071 27.2879C18.103 27.2888 18.0994 27.291 18.0967 27.2942L18.0917 27.3058L18.0633 27.8175C18.0633 27.8275 18.0692 27.8342 18.0775 27.8375L18.09 27.8358L18.2575 27.7583L18.2658 27.7517L18.2692 27.7425L18.2833 27.3842L18.2808 27.3742L18.2725 27.3658L18.1192 27.2892Z" fill="white"/>
</mask>
<g mask="url(#mask0_289_53)">
<path d="M15.9167 9.66669C15.5852 9.66669 15.2672 9.79838 15.0328 10.0328C14.7984 10.2672 14.6667 10.5852 14.6667 10.9167V11.75C14.6667 12.0815 14.7984 12.3995 15.0328 12.6339C15.2672 12.8683 15.5852 13 15.9167 13H20.0834C20.4149 13 20.7328 12.8683 20.9672 12.6339C21.2017 12.3995 21.3334 12.0815 21.3334 11.75V10.9167C21.3334 10.5852 21.2017 10.2672 20.9672 10.0328C20.7328 9.79838 20.4149 9.66669 20.0834 9.66669H15.9167Z" fill="white"/>
<path fill-rule="evenodd" clip-rule="evenodd" d="M13.4167 11.3642C12.3683 11.4225 11.7067 11.5892 11.2325 12.0642C10.5 12.7967 10.5 13.975 10.5 16.3317V21.3317C10.5 23.6892 10.5 24.8675 11.2325 25.6C11.9642 26.3317 13.1433 26.3317 15.5 26.3317H20.5C22.8567 26.3317 24.0358 26.3317 24.7675 25.6C25.5 24.8667 25.5 23.6892 25.5 21.3317V16.3317C25.5 13.975 25.5 12.7967 24.7675 12.0642C24.2933 11.5892 23.6317 11.4225 22.5833 11.3642V11.75C22.5833 12.4131 22.3199 13.049 21.8511 13.5178C21.3823 13.9866 20.7464 14.25 20.0833 14.25H15.9167C15.2536 14.25 14.6177 13.9866 14.1489 13.5178C13.6801 13.049 13.4167 12.4131 13.4167 11.75V11.3642ZM13.8333 16.125C13.6676 16.125 13.5086 16.1909 13.3914 16.3081C13.2742 16.4253 13.2083 16.5843 13.2083 16.75C13.2083 16.9158 13.2742 17.0748 13.3914 17.192C13.5086 17.3092 13.6676 17.375 13.8333 17.375H14.25C14.4158 17.375 14.5747 17.3092 14.6919 17.192C14.8092 17.0748 14.875 16.9158 14.875 16.75C14.875 16.5843 14.8092 16.4253 14.6919 16.3081C14.5747 16.1909 14.4158 16.125 14.25 16.125H13.8333ZM16.75 16.125C16.5842 16.125 16.4253 16.1909 16.3081 16.3081C16.1908 16.4253 16.125 16.5843 16.125 16.75C16.125 16.9158 16.1908 17.0748 16.3081 17.192C16.4253 17.3092 16.5842 17.375 16.75 17.375H22.1667C22.3324 17.375 22.4914 17.3092 22.6086 17.192C22.7258 17.0748 22.7917 16.9158 22.7917 16.75C22.7917 16.5843 22.7258 16.4253 22.6086 16.3081C22.4914 16.1909 22.3324 16.125 22.1667 16.125H16.75ZM13.8333 19.0417C13.6676 19.0417 13.5086 19.1075 13.3914 19.2248C13.2742 19.342 13.2083 19.5009 13.2083 19.6667C13.2083 19.8325 13.2742 19.9914 13.3914 20.1086C13.5086 20.2258 13.6676 20.2917 13.8333 20.2917H14.25C14.4158 20.2917 14.5747 20.2258 14.6919 20.1086C14.8092 19.9914 14.875 19.8325 14.875 19.6667C14.875 19.5009 14.8092 19.342 14.6919 19.2248C14.5747 19.1075 14.4158 19.0417 14.25 19.0417H13.8333ZM16.75 19.0417C16.5842 19.0417 16.4253 19.1075 16.3081 19.2248C16.1908 19.342 16.125 19.5009 16.125 19.6667C16.125 19.8325 16.1908 19.9914 16.3081 20.1086C16.4253 20.2258 16.5842 20.2917 16.75 20.2917H22.1667C22.3324 20.2917 22.4914 20.2258 22.6086 20.1086C22.7258 19.9914 22.7917 19.8325 22.7917 19.6667C22.7917 19.5009 22.7258 19.342 22.6086 19.2248C22.4914 19.1075 22.3324 19.0417 22.1667 19.0417H16.75ZM13.8333 21.9584C13.6676 21.9584 13.5086 22.0242 13.3914 22.1414C13.2742 22.2586 13.2083 22.4176 13.2083 22.5834C13.2083 22.7491 13.2742 22.9081 13.3914 23.0253C13.5086 23.1425 13.6676 23.2084 13.8333 23.2084H14.25C14.4158 23.2084 14.5747 23.1425 14.6919 23.0253C14.8092 22.9081 14.875 22.7491 14.875 22.5834C14.875 22.4176 14.8092 22.2586 14.6919 22.1414C14.5747 22.0242 14.4158 21.9584 14.25 21.9584H13.8333ZM16.75 21.9584C16.5842 21.9584 16.4253 22.0242 16.3081 22.1414C16.1908 22.2586 16.125 22.4176 16.125 22.5834C16.125 22.7491 16.1908 22.9081 16.3081 23.0253C16.4253 23.1425 16.5842 23.2084 16.75 23.2084H22.1667C22.3324 23.2084 22.4914 23.1425 22.6086 23.0253C22.7258 22.9081 22.7917 22.7491 22.7917 22.5834C22.7917 22.4176 22.7258 22.2586 22.6086 22.1414C22.4914 22.0242 22.3324 21.9584 22.1667 21.9584H16.75Z" fill="white"/>
</g>
<defs>
<linearGradient id="paint0_linear_289_53" x1="6" y1="6.5" x2="29.5" y2="30.5" gradientUnits="userSpaceOnUse">
<stop stop-color="#56718E"/>
<stop offset="1" stop-color="#4B6683"/>
</linearGradient>
<linearGradient id="paint1_linear_289_53" x1="6" y1="6.5" x2="29.5" y2="30.5" gradientUnits="userSpaceOnUse">
<stop stop-color="#E96038"/>
<stop offset="1" stop-color="#E1451D"/>
</linearGradient>
</defs>
</svg>
