<svg width="36" height="36" viewBox="0 0 36 36" fill="none" xmlns="http://www.w3.org/2000/svg">
<rect width="36" height="36" rx="18" fill="url(#paint0_linear_971_127)"/>
<path d="M18.8334 22.1667H12.1667C11.7084 22.1667 11.3334 22.5417 11.3334 23.0001C11.3334 23.4584 11.7084 23.8334 12.1667 23.8334H18.8334C19.2917 23.8334 19.6667 23.4584 19.6667 23.0001C19.6667 22.5417 19.2917 22.1667 18.8334 22.1667ZM23.8334 15.5001H12.1667C11.7084 15.5001 11.3334 15.8751 11.3334 16.3334C11.3334 16.7917 11.7084 17.1667 12.1667 17.1667H23.8334C24.2917 17.1667 24.6667 16.7917 24.6667 16.3334C24.6667 15.8751 24.2917 15.5001 23.8334 15.5001ZM12.1667 20.5001H23.8334C24.2917 20.5001 24.6667 20.1251 24.6667 19.6667C24.6667 19.2084 24.2917 18.8334 23.8334 18.8334H12.1667C11.7084 18.8334 11.3334 19.2084 11.3334 19.6667C11.3334 20.1251 11.7084 20.5001 12.1667 20.5001ZM11.3334 13.0001C11.3334 13.4584 11.7084 13.8334 12.1667 13.8334H23.8334C24.2917 13.8334 24.6667 13.4584 24.6667 13.0001C24.6667 12.5417 24.2917 12.1667 23.8334 12.1667H12.1667C11.7084 12.1667 11.3334 12.5417 11.3334 13.0001Z" fill="white"/>
<defs>
<linearGradient id="paint0_linear_971_127" x1="6" y1="6.5" x2="29.5" y2="30.5" gradientUnits="userSpaceOnUse">
<stop stop-color="#E96038"/>
<stop offset="1" stop-color="#E1451D"/>
</linearGradient>
</defs>
</svg>
