<svg width="36" height="36" viewBox="0 0 36 36" fill="none" xmlns="http://www.w3.org/2000/svg">
<rect width="36" height="36" rx="18" fill="url(#paint0_linear_293_142)"/>
<g clip-path="url(#clip0_293_142)">
<path d="M24.5167 13C24.7587 13.0001 24.9978 13.0529 25.2173 13.1547C25.4369 13.2566 25.6316 13.405 25.788 13.5897C25.9444 13.7744 26.0587 13.9909 26.1229 14.2243C26.1872 14.4576 26.1998 14.7021 26.16 14.9408L24.7717 23.2742C24.7068 23.6633 24.5059 24.0168 24.2049 24.2718C23.9038 24.5268 23.5221 24.6667 23.1275 24.6667H12.8725C12.478 24.6667 12.0962 24.5268 11.7952 24.2718C11.4941 24.0168 11.2933 23.6633 11.2284 23.2742L9.84003 14.9408C9.80022 14.7021 9.81287 14.4576 9.87711 14.2243C9.94135 13.9909 10.0556 13.7744 10.212 13.5897C10.3684 13.405 10.5632 13.2566 10.7827 13.1547C11.0023 13.0529 11.2413 13.0001 11.4834 13H24.5167ZM23 10.5C23.221 10.5 23.433 10.5878 23.5893 10.7441C23.7456 10.9004 23.8334 11.1123 23.8334 11.3333C23.8334 11.5543 23.7456 11.7663 23.5893 11.9226C23.433 12.0789 23.221 12.1667 23 12.1667H13C12.779 12.1667 12.5671 12.0789 12.4108 11.9226C12.2545 11.7663 12.1667 11.5543 12.1667 11.3333C12.1667 11.1123 12.2545 10.9004 12.4108 10.7441C12.5671 10.5878 12.779 10.5 13 10.5H23Z" fill="white"/>
</g>
<defs>
<linearGradient id="paint0_linear_293_142" x1="31" y1="27.5" x2="6.5" y2="7" gradientUnits="userSpaceOnUse">
<stop stop-color="#6038CB"/>
<stop offset="1" stop-color="#704ADC"/>
</linearGradient>
<clipPath id="clip0_293_142">
<rect width="20" height="20" fill="white" transform="translate(8 8)"/>
</clipPath>
</defs>
</svg>
