<svg width="36" height="36" viewBox="0 0 36 36" fill="none" xmlns="http://www.w3.org/2000/svg">
<rect width="36" height="36" rx="18" fill="url(#paint0_linear_971_113)"/>
<path d="M23.8333 18.8333H12.1667C11.25 18.8333 10.5 19.5833 10.5 20.5V23.8333C10.5 24.75 11.25 25.5 12.1667 25.5H23.8333C24.75 25.5 25.5 24.75 25.5 23.8333V20.5C25.5 19.5833 24.75 18.8333 23.8333 18.8333ZM13.8333 23.8333C12.9167 23.8333 12.1667 23.0833 12.1667 22.1667C12.1667 21.25 12.9167 20.5 13.8333 20.5C14.75 20.5 15.5 21.25 15.5 22.1667C15.5 23.0833 14.75 23.8333 13.8333 23.8333ZM23.8333 10.5H12.1667C11.25 10.5 10.5 11.25 10.5 12.1667V15.5C10.5 16.4167 11.25 17.1667 12.1667 17.1667H23.8333C24.75 17.1667 25.5 16.4167 25.5 15.5V12.1667C25.5 11.25 24.75 10.5 23.8333 10.5ZM13.8333 15.5C12.9167 15.5 12.1667 14.75 12.1667 13.8333C12.1667 12.9167 12.9167 12.1667 13.8333 12.1667C14.75 12.1667 15.5 12.9167 15.5 13.8333C15.5 14.75 14.75 15.5 13.8333 15.5Z" fill="white"/>
<defs>
<linearGradient id="paint0_linear_971_113" x1="31" y1="27.5" x2="6.5" y2="7" gradientUnits="userSpaceOnUse">
<stop stop-color="#6038CB"/>
<stop offset="1" stop-color="#704ADC"/>
</linearGradient>
</defs>
</svg>
