<svg width="36" height="36" viewBox="0 0 36 36" fill="none" xmlns="http://www.w3.org/2000/svg">
<rect width="36" height="36" rx="18" fill="url(#paint0_linear_294_169)"/>
<g clip-path="url(#clip0_294_169)">
<path d="M18 22.1667C18.221 22.1667 18.433 22.2545 18.5893 22.4107C18.7455 22.567 18.8333 22.779 18.8333 23C18.8333 23.221 18.7455 23.433 18.5893 23.5893C18.433 23.7455 18.221 23.8333 18 23.8333C17.779 23.8333 17.567 23.7455 17.4107 23.5893C17.2545 23.433 17.1667 23.221 17.1667 23C17.1667 22.779 17.2545 22.567 17.4107 22.4107C17.567 22.2545 17.779 22.1667 18 22.1667ZM18 18.8333C19.15 18.8333 20.1933 19.3 20.9467 20.0533C21.103 20.2097 21.1909 20.4218 21.1909 20.6429C21.1909 20.8641 21.103 21.0761 20.9467 21.2325C20.7903 21.3889 20.5782 21.4767 20.3571 21.4767C20.136 21.4767 19.9239 21.3889 19.7675 21.2325C19.5357 20.9999 19.2603 20.8154 18.9569 20.6897C18.6536 20.564 18.3284 20.4995 18 20.5C17.3092 20.5 16.6858 20.7792 16.2325 21.2325C16.0761 21.3889 15.8641 21.4767 15.6429 21.4767C15.4218 21.4767 15.2097 21.3889 15.0533 21.2325C14.897 21.0761 14.8091 20.8641 14.8091 20.6429C14.8091 20.4218 14.897 20.2097 15.0533 20.0533C15.44 19.666 15.8993 19.3588 16.405 19.1494C16.9107 18.9401 17.4527 18.8326 18 18.8333ZM18 15.5C18.9851 15.4989 19.9607 15.6923 20.8708 16.0693C21.7809 16.4463 22.6076 16.9993 23.3033 17.6967C23.4551 17.8538 23.5391 18.0643 23.5372 18.2828C23.5353 18.5013 23.4477 18.7103 23.2932 18.8648C23.1387 19.0194 22.9297 19.107 22.7112 19.1089C22.4927 19.1108 22.2822 19.0268 22.125 18.875C21.584 18.3324 20.941 17.9022 20.2331 17.609C19.5251 17.3158 18.7662 17.1655 18 17.1667C17.2338 17.1655 16.4749 17.3158 15.7669 17.609C15.059 17.9022 14.416 18.3324 13.875 18.875C13.7178 19.0268 13.5073 19.1108 13.2888 19.1089C13.0703 19.107 12.8613 19.0194 12.7068 18.8648C12.5523 18.7103 12.4647 18.5013 12.4628 18.2828C12.4609 18.0643 12.5449 17.8538 12.6967 17.6967C13.3924 16.9993 14.2191 16.4463 15.1292 16.0693C16.0393 15.6923 17.0149 15.4989 18 15.5ZM18 12.1667C20.9917 12.1667 23.7 13.38 25.66 15.34C25.8118 15.4972 25.8958 15.7077 25.8939 15.9262C25.892 16.1447 25.8044 16.3537 25.6499 16.5082C25.4953 16.6627 25.2863 16.7503 25.0678 16.7522C24.8493 16.7541 24.6388 16.6701 24.4817 16.5183C23.6315 15.6657 22.6212 14.9896 21.5089 14.5288C20.3965 14.068 19.204 13.8316 18 13.8333C16.796 13.8315 15.6035 14.0679 14.4911 14.5286C13.3787 14.9894 12.3684 15.6656 11.5183 16.5183C11.3612 16.6701 11.1507 16.7541 10.9322 16.7522C10.7137 16.7503 10.5047 16.6627 10.3502 16.5082C10.1957 16.3537 10.108 16.1447 10.1061 15.9262C10.1042 15.7077 10.1882 15.4972 10.34 15.34C11.3449 14.3326 12.5389 13.5337 13.8534 12.9891C15.1679 12.4445 16.5771 12.165 18 12.1667Z" fill="white"/>
</g>
<defs>
<linearGradient id="paint0_linear_294_169" x1="31" y1="27.5" x2="6.5" y2="7" gradientUnits="userSpaceOnUse">
<stop stop-color="#21B2CB"/>
<stop offset="1" stop-color="#3EC5D2"/>
</linearGradient>
<clipPath id="clip0_294_169">
<rect width="20" height="20" fill="white" transform="translate(8 8)"/>
</clipPath>
</defs>
</svg>
