<svg width="36" height="36" viewBox="0 0 36 36" fill="none" xmlns="http://www.w3.org/2000/svg">
<rect width="36" height="36" rx="18" fill="url(#paint0_linear_971_108)"/>
<path d="M9.7167 16.3834C10.1417 16.8084 10.8167 16.85 11.275 16.4667C15.1667 13.2667 20.8167 13.2667 24.7167 16.4583C25.1834 16.8417 25.8667 16.8084 26.2917 16.3834C26.7834 15.8917 26.75 15.075 26.2084 14.6333C21.45 10.7417 14.5667 10.7417 9.80003 14.6333C9.25836 15.0667 9.2167 15.8834 9.7167 16.3834ZM16.1834 22.85L17.4084 24.075C17.7334 24.4 18.2584 24.4 18.5834 24.075L19.8084 22.85C20.2 22.4583 20.1167 21.7833 19.6167 21.525C18.6 21 17.3834 21 16.3584 21.525C15.8834 21.7833 15.7917 22.4583 16.1834 22.85ZM13.075 19.7417C13.4834 20.15 14.125 20.1917 14.6 19.85C16.6334 18.4084 19.3667 18.4084 21.4 19.85C21.875 20.1834 22.5167 20.15 22.925 19.7417L22.9334 19.7333C23.4334 19.2333 23.4 18.3834 22.825 17.975C19.9584 15.9 16.05 15.9 13.175 17.975C12.6 18.3917 12.5667 19.2333 13.075 19.7417Z" fill="white"/>
<defs>
<linearGradient id="paint0_linear_971_108" x1="31" y1="27.5" x2="6.5" y2="7" gradientUnits="userSpaceOnUse">
<stop stop-color="#21B2CB"/>
<stop offset="1" stop-color="#3EC5D2"/>
</linearGradient>
</defs>
</svg>
