<svg width="36" height="36" viewBox="0 0 36 36" fill="none" xmlns="http://www.w3.org/2000/svg">
<rect width="36" height="36" rx="18" fill="url(#paint0_linear_971_122)"/>
<path d="M15.5 24.6666C15.5 25.125 15.875 25.5 16.3333 25.5C16.7917 25.5 17.1667 25.125 17.1667 24.6666V22.1666C17.775 20.0166 19.725 19.275 21.475 19.6666L20.7416 20.4C20.4166 20.725 20.4166 21.25 20.7416 21.575C21.0666 21.9 21.5917 21.9 21.9167 21.575L24.075 19.4166C24.4 19.0916 24.4 18.5666 24.075 18.2416L21.9167 16.0833C21.8396 16.006 21.748 15.9447 21.6472 15.9029C21.5464 15.8611 21.4383 15.8396 21.3291 15.8396C21.22 15.8396 21.1119 15.8611 21.0111 15.9029C20.9103 15.9447 20.8187 16.006 20.7416 16.0833C20.4166 16.4083 20.4166 16.9333 20.7416 17.2583L21.475 18C20.2166 17.725 18.3667 18.0666 17.1667 19.1333V13.6916L17.9 14.425C18.225 14.75 18.75 14.75 19.075 14.425C19.4 14.1 19.4 13.575 19.075 13.25L16.9167 11.0916C16.8396 11.0144 16.748 10.9531 16.6472 10.9113C16.5464 10.8694 16.4383 10.8479 16.3292 10.8479C16.22 10.8479 16.1119 10.8694 16.0111 10.9113C15.9103 10.9531 15.8187 11.0144 15.7417 11.0916L13.5917 13.2416C13.2667 13.5666 13.2667 14.0916 13.5917 14.4166C13.9167 14.7416 14.4417 14.7416 14.7667 14.4166L15.5 13.6916V24.6666Z" fill="white"/>
<defs>
<linearGradient id="paint0_linear_971_122" x1="31" y1="27.5" x2="6.5" y2="7" gradientUnits="userSpaceOnUse">
<stop stop-color="#FB4293"/>
<stop offset="1" stop-color="#F957A1"/>
</linearGradient>
</defs>
</svg>
