<svg width="36" height="36" viewBox="0 0 36 36" fill="none" xmlns="http://www.w3.org/2000/svg">
<rect width="36" height="36" rx="18" fill="url(#paint0_linear_294_182)"/>
<g clip-path="url(#clip0_294_182)">
<path fill-rule="evenodd" clip-rule="evenodd" d="M24.7759 10.6333C24.307 10.1647 23.6713 9.90137 23.0084 9.90137C22.3454 9.90137 21.7097 10.1647 21.2409 10.6333L20.6517 11.2233L24.7767 15.3483L25.365 14.7592C25.5972 14.527 25.7814 14.2514 25.9071 13.9481C26.0327 13.6447 26.0974 13.3196 26.0974 12.9913C26.0974 12.6629 26.0327 12.3378 25.9071 12.0344C25.7814 11.7311 25.5972 11.4555 25.365 11.2233L24.7759 10.6333ZM23.5975 16.5267L19.4725 12.4017L11.8975 19.9775C11.7318 20.1433 11.616 20.3524 11.5634 20.5808L10.7059 24.2933C10.6739 24.4312 10.6776 24.5748 10.7165 24.7109C10.7554 24.8469 10.8284 24.9707 10.9284 25.0708C11.0284 25.1708 11.1523 25.2437 11.2883 25.2827C11.4243 25.3216 11.568 25.3253 11.7059 25.2933L15.4192 24.4367C15.6474 24.3839 15.8561 24.2681 16.0217 24.1025L23.5975 16.5267Z" fill="white"/>
</g>
<defs>
<linearGradient id="paint0_linear_294_182" x1="31" y1="27.5" x2="6.5" y2="7" gradientUnits="userSpaceOnUse">
<stop stop-color="#FB4293"/>
<stop offset="1" stop-color="#F957A1"/>
</linearGradient>
<clipPath id="clip0_294_182">
<rect width="20" height="20" fill="white" transform="translate(8 8)"/>
</clipPath>
</defs>
</svg>
