<svg width="36" height="36" viewBox="0 0 36 36" fill="none" xmlns="http://www.w3.org/2000/svg">
<rect width="36" height="36" rx="18" fill="url(#paint0_linear_971_137)"/>
<path d="M24.25 18.0001C24.25 17.8084 24.2416 17.6251 24.225 17.4334L25.775 16.2584C26.1083 16.0084 26.2 15.5417 25.9916 15.1751L24.4333 12.4834C24.225 12.1167 23.775 11.9667 23.3916 12.1334L21.6 12.8917C21.2916 12.6751 20.9666 12.4834 20.625 12.3251L20.3833 10.4001C20.3333 9.98341 19.975 9.66675 19.5583 9.66675H16.45C16.025 9.66675 15.6666 9.98341 15.6166 10.4001L15.375 12.3251C15.0333 12.4834 14.7083 12.6751 14.4 12.8917L12.6083 12.1334C12.225 11.9667 11.775 12.1167 11.5666 12.4834L10.0083 15.1834C9.79997 15.5501 9.89163 16.0084 10.225 16.2667L11.775 17.4417C11.7583 17.6251 11.75 17.8084 11.75 18.0001C11.75 18.1917 11.7583 18.3751 11.775 18.5667L10.225 19.7417C9.89163 19.9917 9.79997 20.4584 10.0083 20.8251L11.5666 23.5167C11.775 23.8834 12.225 24.0334 12.6083 23.8667L14.4 23.1084C14.7083 23.3251 15.0333 23.5167 15.375 23.6751L15.6166 25.6001C15.6666 26.0167 16.025 26.3334 16.4416 26.3334H19.55C19.9666 26.3334 20.325 26.0167 20.375 25.6001L20.6166 23.6751C20.9583 23.5167 21.2833 23.3251 21.5916 23.1084L23.3833 23.8667C23.7666 24.0334 24.2166 23.8834 24.425 23.5167L25.9833 20.8251C26.1916 20.4584 26.1 20.0001 25.7666 19.7417L24.2166 18.5667C24.2416 18.3751 24.25 18.1917 24.25 18.0001ZM18.0333 20.9167C16.425 20.9167 15.1166 19.6084 15.1166 18.0001C15.1166 16.3917 16.425 15.0834 18.0333 15.0834C19.6416 15.0834 20.95 16.3917 20.95 18.0001C20.95 19.6084 19.6416 20.9167 18.0333 20.9167Z" fill="white"/>
<defs>
<linearGradient id="paint0_linear_971_137" x1="6" y1="6.5" x2="29.5" y2="30.5" gradientUnits="userSpaceOnUse">
<stop stop-color="#56718E"/>
<stop offset="1" stop-color="#4B6683"/>
</linearGradient>
</defs>
</svg>
