<svg width="36" height="36" viewBox="0 0 36 36" fill="none" xmlns="http://www.w3.org/2000/svg">
<rect width="36" height="36" rx="18" fill="url(#paint0_linear_289_39)"/>
<path d="M20.0083 9.91083C20.8155 10.1108 21.5881 10.431 22.3 10.8608C22.4427 10.947 22.5563 11.0739 22.6262 11.2253C22.696 11.3767 22.7188 11.5455 22.6916 11.71C22.5975 12.2842 22.74 12.7233 23.0083 12.9917C23.2766 13.26 23.7166 13.4025 24.29 13.3083C24.4545 13.2812 24.6233 13.304 24.7747 13.3738C24.9261 13.4437 25.053 13.5573 25.1391 13.7C25.569 14.4119 25.8893 15.1844 26.0891 15.9917C26.1294 16.1536 26.1201 16.3239 26.0624 16.4805C26.0048 16.6371 25.9015 16.7728 25.7658 16.87C25.2933 17.2092 25.0825 17.62 25.0825 18C25.0825 18.38 25.2933 18.7917 25.7658 19.1308C25.9013 19.228 26.0045 19.3635 26.0622 19.52C26.1198 19.6764 26.1292 19.8465 26.0891 20.0083C25.8892 20.8156 25.569 21.5881 25.1391 22.3C25.053 22.4427 24.9261 22.5564 24.7747 22.6262C24.6233 22.696 24.4545 22.7188 24.29 22.6917C23.7158 22.5975 23.2766 22.7408 23.0083 23.0083C22.74 23.2767 22.5975 23.7167 22.6916 24.29C22.719 24.4546 22.6962 24.6236 22.6264 24.7752C22.5566 24.9267 22.4429 25.0538 22.3 25.14C21.5881 25.5698 20.8155 25.8901 20.0083 26.09C19.8464 26.1302 19.6761 26.1209 19.5195 26.0633C19.3629 26.0056 19.2272 25.9023 19.13 25.7667C18.7908 25.2933 18.38 25.0833 18 25.0833C17.62 25.0833 17.2083 25.2933 16.8691 25.7667C16.772 25.9022 16.6365 26.0054 16.48 26.063C16.3236 26.1207 16.1535 26.1301 15.9916 26.09C15.1844 25.8901 14.4119 25.5698 13.7 25.14C13.5571 25.0538 13.4434 24.9267 13.3736 24.7752C13.3037 24.6236 13.281 24.4546 13.3083 24.29C13.4025 23.7167 13.2591 23.2775 12.9916 23.0092C12.7225 22.7408 12.2833 22.5975 11.71 22.6925C11.5454 22.7198 11.3763 22.6971 11.2248 22.6273C11.0733 22.5574 10.9462 22.4437 10.86 22.3008C10.43 21.5884 10.1098 20.8153 9.90998 20.0075C9.86992 19.8457 9.87931 19.6756 9.93695 19.5191C9.99459 19.3627 10.0978 19.2271 10.2333 19.13C10.7066 18.7917 10.9166 18.38 10.9166 18C10.9166 17.6208 10.7066 17.2083 10.2333 16.87C10.0978 16.7729 9.99459 16.6373 9.93695 16.4809C9.87931 16.3245 9.86992 16.1543 9.90998 15.9925C10.1098 15.185 10.4301 14.4122 10.86 13.7C10.9462 13.5571 11.0733 13.4434 11.2248 13.3736C11.3763 13.3037 11.5454 13.281 11.71 13.3083C12.2833 13.4025 12.7225 13.26 12.9908 12.9917C13.2591 12.7233 13.4025 12.2833 13.3075 11.71C13.2803 11.5455 13.3032 11.3767 13.373 11.2253C13.4428 11.0739 13.5564 10.947 13.6991 10.8608C14.4113 10.4309 15.1841 10.1107 15.9916 9.91083C16.1535 9.87077 16.3236 9.88017 16.48 9.93781C16.6365 9.99545 16.772 10.0987 16.8691 10.2342C17.2083 10.7067 17.62 10.9175 18 10.9175C18.3791 10.9175 18.7916 10.7067 19.13 10.2342C19.2271 10.0987 19.3627 9.99545 19.5191 9.93781C19.6755 9.88017 19.8465 9.87077 20.0083 9.91083ZM18 13.8333C16.8949 13.8333 15.8351 14.2723 15.0537 15.0537C14.2723 15.8351 13.8333 16.8949 13.8333 18C13.8333 19.1051 14.2723 20.1649 15.0537 20.9463C15.8351 21.7277 16.8949 22.1667 18 22.1667C19.105 22.1667 20.1649 21.7277 20.9463 20.9463C21.7277 20.1649 22.1666 19.1051 22.1666 18C22.1666 16.8949 21.7277 15.8351 20.9463 15.0537C20.1649 14.2723 19.105 13.8333 18 13.8333ZM18 15.5C18.663 15.5 19.2989 15.7634 19.7677 16.2322C20.2366 16.7011 20.5 17.337 20.5 18C20.5 18.663 20.2366 19.2989 19.7677 19.7678C19.2989 20.2366 18.663 20.5 18 20.5C17.3369 20.5 16.7011 20.2366 16.2322 19.7678C15.7634 19.2989 15.5 18.663 15.5 18C15.5 17.337 15.7634 16.7011 16.2322 16.2322C16.7011 15.7634 17.3369 15.5 18 15.5Z" fill="white"/>
<defs>
<linearGradient id="paint0_linear_289_39" x1="6" y1="6.5" x2="29.5" y2="30.5" gradientUnits="userSpaceOnUse">
<stop stop-color="#56718E"/>
<stop offset="1" stop-color="#4B6683"/>
</linearGradient>
</defs>
</svg>

