<svg width="36" height="36" viewBox="0 0 36 36" fill="none" xmlns="http://www.w3.org/2000/svg">
<rect width="36" height="36" rx="18" fill="url(#paint0_linear_971_135)"/>
<path d="m9,14.71529c0,-0.32 0.15,-0.62 0.41,-0.81l3.73,-2.72c0.4,-0.29 0.95,-0.25 1.3,0.1l3.78,3.78l7.2,-5.23c0.65,-0.48 1.58,-0.01 1.58,0.81c0,0.32 -0.15,0.62 -0.41,0.81l-7.9,5.73c-0.4,0.29 -0.95,0.25 -1.29,-0.1l-3.78,-3.78l-3.03,2.22c-0.66,0.48 -1.59,0.01 -1.59,-0.81m18,6.97c0,-0.55 -0.45,-1 -1,-1l-3.35,0c-0.23,0 -0.45,0.08 -0.62,0.22l-3.9,3.12l-5.53,-5.35c-0.35,-0.34 -0.88,-0.38 -1.27,-0.1l-1.9,1.35c-0.27,0.19 -0.43,0.5 -0.43,0.82c0,0.81 0.92,1.29 1.58,0.81l1.22,-0.87l5.57,5.39c0.36,0.35 0.93,0.38 1.32,0.06l4.31,-3.45l3,0c0.55,0 1,-0.45 1,-1" fill="white"/>
<defs>
<linearGradient id="paint0_linear_971_135" x1="31" y1="27.5" x2="6.5" y2="7" gradientUnits="userSpaceOnUse">
<stop stop-color="#CC7C65"/>
<stop offset="1" stop-color="#CC7C65"/>
</linearGradient>
</defs>
</svg>
