<svg width="36" height="36" viewBox="0 0 36 36" fill="none" xmlns="http://www.w3.org/2000/svg">
<rect width="36" height="36" rx="18" fill="url(#paint0_linear_3004_316)"/>
<path d="M23 14.6666H22.1667V13C22.1667 10.7 20.3 8.83331 18 8.83331C15.7 8.83331 13.8334 10.7 13.8334 13H15.5C15.5 11.6166 16.6167 10.5 18 10.5C19.3834 10.5 20.5 11.6166 20.5 13V14.6666H13C12.0834 14.6666 11.3334 15.4166 11.3334 16.3333V24.6666C11.3334 25.5833 12.0834 26.3333 13 26.3333H23C23.9167 26.3333 24.6667 25.5833 24.6667 24.6666V16.3333C24.6667 15.4166 23.9167 14.6666 23 14.6666ZM23 24.6666H13V16.3333H23V24.6666ZM18 22.1666C18.9167 22.1666 19.6667 21.4166 19.6667 20.5C19.6667 19.5833 18.9167 18.8333 18 18.8333C17.0834 18.8333 16.3334 19.5833 16.3334 20.5C16.3334 21.4166 17.0834 22.1666 18 22.1666Z" fill="white"/>
<defs>
<linearGradient id="paint0_linear_3004_316" x1="31" y1="27.5" x2="6.5" y2="7" gradientUnits="userSpaceOnUse">
<stop stop-color="#FFA800"/>
<stop offset="1" stop-color="#FFAC4B"/>
</linearGradient>
</defs>
</svg>
